<?xml version="1.0" encoding="UTF-8" standalone="no"?>
<svg
   width="1013.1019"
   zoomAndPan="magnify"
   viewBox="0 0 759.82644 137.13542"
   height="182.84723"
   preserveAspectRatio="xMidYMid"
   version="1.0"
   id="svg200"
   xml:space="preserve"
   xmlns="http://www.w3.org/2000/svg"
   xmlns:svg="http://www.w3.org/2000/svg"><defs
     id="defs3"><clipPath
       id="422237968c"><rect
         x="0"
         width="757"
         y="0"
         height="97"
         id="rect1" /></clipPath><clipPath
       id="dfd0f36069"><rect
         x="0"
         width="722"
         y="0"
         height="54"
         id="rect2" /></clipPath></defs><g
     transform="translate(-981.67335,5.1239027)"
     id="g49"><g
       clip-path="url(#422237968c)"
       id="g48"
       transform="translate(980.7942,-3.4657039)"><g
         fill="#000000"
         fill-opacity="1"
         id="g5"><g
           transform="translate(6.391167,75.345166)"
           id="g4"><g
             id="g3"><path
               d="M 8.890625,-2.40625 C 8.460938,-1.445312 8.035156,-0.804688 7.609375,-0.484375 7.179688,-0.160156 6.539062,0 5.6875,0 H 1.515625 c -1.0625,0 -1.59375,-0.347656 -1.59375,-1.046875 0,-0.257813 0.1328125,-0.710937 0.40625,-1.359375 L 24.4375,-53.203125 c 0.800781,-1.65625 1.390625,-2.734375 1.765625,-3.234375 0.375,-0.507812 0.828125,-0.765625 1.359375,-0.765625 0.476562,0 0.890625,0.257813 1.234375,0.765625 0.351563,0.5 0.929687,1.578125 1.734375,3.234375 L 54.890625,-2.40625 c 0.257813,0.648438 0.390625,1.101562 0.390625,1.359375 C 55.28125,-0.347656 54.722656,0 53.609375,0 h -4.5 C 48.253906,0 47.625,-0.160156 47.21875,-0.484375 46.820312,-0.804688 46.382812,-1.445312 45.90625,-2.40625 l -18.5,-39.90625 z m 0,0"
               id="path3" /></g></g></g><g
         fill="#000000"
         fill-opacity="1"
         id="g8"><g
           transform="translate(61.573909,75.345166)"
           id="g7"><g
             id="g6"><path
               d="m 15.0625,-8.5 c 0,0.324219 0.06641,0.554688 0.203125,0.6875 0.132813,0.136719 0.390625,0.203125 0.765625,0.203125 h 23.625 c 0.644531,0 1.097656,0.121094 1.359375,0.359375 0.269531,0.242188 0.40625,0.710938 0.40625,1.40625 v 4.078125 c 0,0.699219 -0.136719,1.167969 -0.40625,1.40625 C 40.753906,-0.117188 40.300781,0 39.65625,0 H 8.8125 C 8.175781,0 7.722656,-0.117188 7.453125,-0.359375 7.179688,-0.597656 7.046875,-1.066406 7.046875,-1.765625 v -52.5625 c 0,-0.6875 0.132813,-1.148437 0.40625,-1.390625 0.269531,-0.25 0.722656,-0.375 1.359375,-0.375 h 4.484375 c 0.644531,0 1.097656,0.125 1.359375,0.375 0.269531,0.242188 0.40625,0.703125 0.40625,1.390625 z m 0,0"
               id="path5" /></g></g></g><g
         fill="#000000"
         fill-opacity="1"
         id="g11"><g
           transform="translate(105.78417,75.345166)"
           id="g10"><g
             id="g9"><path
               d="m 39.1875,-7.609375 c 0.632812,0 1.082031,0.121094 1.34375,0.359375 0.269531,0.242188 0.40625,0.710938 0.40625,1.40625 v 4.078125 c 0,0.699219 -0.136719,1.167969 -0.40625,1.40625 C 40.269531,-0.117188 39.820312,0 39.1875,0 H 8.8125 C 8.175781,0 7.722656,-0.117188 7.453125,-0.359375 7.179688,-0.597656 7.046875,-1.066406 7.046875,-1.765625 v -52.5625 c 0,-0.6875 0.132813,-1.148437 0.40625,-1.390625 0.269531,-0.25 0.722656,-0.375 1.359375,-0.375 h 30.28125 c 0.644531,0 1.097656,0.125 1.359375,0.375 0.269531,0.242188 0.40625,0.703125 0.40625,1.390625 v 4.09375 c 0,0.6875 -0.136719,1.15625 -0.40625,1.40625 -0.261719,0.242187 -0.714844,0.359375 -1.359375,0.359375 h -23.0625 c -0.375,0 -0.632812,0.07031 -0.765625,0.203125 -0.136719,0.125 -0.203125,0.351563 -0.203125,0.671875 v 14.65625 c 0,0.375 0.06641,0.632812 0.203125,0.765625 0.132813,0.136719 0.390625,0.203125 0.765625,0.203125 H 36.375 c 0.644531,0 1.097656,0.121094 1.359375,0.359375 0.269531,0.242187 0.40625,0.710937 0.40625,1.40625 v 4 c 0,0.648437 -0.136719,1.105469 -0.40625,1.375 -0.261719,0.261719 -0.714844,0.390625 -1.359375,0.390625 H 16.03125 c -0.375,0 -0.632812,0.07031 -0.765625,0.203125 C 15.128906,-24.097656 15.0625,-23.875 15.0625,-23.5625 V -8.5 c 0,0.324219 0.06641,0.554688 0.203125,0.6875 0.132813,0.136719 0.390625,0.203125 0.765625,0.203125 z m 0,0"
               id="path8" /></g></g></g><g
         fill="#000000"
         fill-opacity="1"
         id="g14"><g
           transform="translate(151.43624,75.345166)"
           id="g13"><g
             id="g12"><path
               d="m -4.484375,9.609375 c 0.054687,-0.585937 0.1875,-0.96875 0.40625,-1.15625 0.210937,-0.1875 0.527344,-0.28125 0.953125,-0.28125 0.324219,0 0.859375,0.035156 1.609375,0.109375 0.742187,0.082031 1.40625,0.125 2,0.125 2.40625,0 4.273437,-0.949219 5.609375,-2.84375 1.332031,-1.898438 2,-4.683594 2,-8.359375 v -51.53125 c 0,-0.6875 0.128906,-1.148437 0.390625,-1.390625 0.269531,-0.25 0.726563,-0.375 1.375,-0.375 h 4.484375 c 0.632812,0 1.085938,0.125 1.359375,0.375 0.269531,0.242188 0.40625,0.703125 0.40625,1.390625 V -2.15625 c 0,12.125 -4.996094,18.1875 -14.984375,18.1875 -2.1875,0 -3.789062,-0.164062 -4.8125,-0.484375 -0.53125,-0.105469 -0.890625,-0.308594 -1.078125,-0.609375 -0.1875,-0.292969 -0.253906,-0.730469 -0.203125,-1.3125 z m 0,0"
               id="path11" /></g></g></g><g
         fill="#000000"
         fill-opacity="1"
         id="g17"><g
           transform="translate(174.18208,75.345166)"
           id="g16"><g
             id="g15"><path
               d="M 8.890625,-2.40625 C 8.460938,-1.445312 8.035156,-0.804688 7.609375,-0.484375 7.179688,-0.160156 6.539062,0 5.6875,0 H 1.515625 c -1.0625,0 -1.59375,-0.347656 -1.59375,-1.046875 0,-0.257813 0.1328125,-0.710937 0.40625,-1.359375 L 24.4375,-53.203125 c 0.800781,-1.65625 1.390625,-2.734375 1.765625,-3.234375 0.375,-0.507812 0.828125,-0.765625 1.359375,-0.765625 0.476562,0 0.890625,0.257813 1.234375,0.765625 0.351563,0.5 0.929687,1.578125 1.734375,3.234375 L 54.890625,-2.40625 c 0.257813,0.648438 0.390625,1.101562 0.390625,1.359375 C 55.28125,-0.347656 54.722656,0 53.609375,0 h -4.5 C 48.253906,0 47.625,-0.160156 47.21875,-0.484375 46.820312,-0.804688 46.382812,-1.445312 45.90625,-2.40625 l -18.5,-39.90625 z m 0,0"
               id="path14" /></g></g></g><g
         fill="#000000"
         fill-opacity="1"
         id="g20"><g
           transform="translate(229.36482,75.345166)"
           id="g19"><g
             id="g18"><path
               d="m 44.546875,-54.328125 c 0,-0.6875 0.128906,-1.148437 0.390625,-1.390625 0.269531,-0.25 0.726562,-0.375 1.375,-0.375 h 4.484375 c 0.644531,0 1.097656,0.125 1.359375,0.375 0.269531,0.242188 0.40625,0.703125 0.40625,1.390625 v 52.5625 c 0,1.76171875 -0.539062,2.640625 -1.609375,2.640625 -0.429687,0 -0.882813,-0.171875 -1.359375,-0.515625 -0.480469,-0.34375 -1.148438,-1 -2,-1.96875 l -32.53125,-38.375 v 38.21875 c 0,0.699219 -0.136719,1.167969 -0.40625,1.40625 C 14.394531,-0.117188 13.941406,0 13.296875,0 H 8.8125 C 8.175781,0 7.722656,-0.117188 7.453125,-0.359375 7.179688,-0.597656 7.046875,-1.066406 7.046875,-1.765625 v -52.5625 c 0,-0.90625 0.132813,-1.570313 0.40625,-2 0.269531,-0.425781 0.695313,-0.640625 1.28125,-0.640625 0.425781,0 0.878906,0.179688 1.359375,0.53125 0.476562,0.34375 1.117188,0.996094 1.921875,1.953125 l 32.53125,38.375 z m 0,0"
               id="path17" /></g></g></g><g
         fill="#000000"
         fill-opacity="1"
         id="g23"><g
           transform="translate(288.95257,75.345166)"
           id="g22"><g
             id="g21"><path
               d="m 7.046875,-54.328125 c 0,-0.6875 0.132813,-1.148437 0.40625,-1.390625 0.269531,-0.25 0.722656,-0.375 1.359375,-0.375 h 16.671875 c 6.195313,0 11.578125,1.136719 16.140625,3.40625 4.5625,2.273438 8.054688,5.464844 10.484375,9.578125 2.4375,4.117187 3.65625,8.921875 3.65625,14.421875 0,5.773438 -1.273437,10.824219 -3.8125,15.15625 C 49.421875,-9.207031 45.789062,-5.867188 41.0625,-3.515625 36.332031,-1.171875 30.765625,0 24.359375,0 H 8.8125 C 8.175781,0 7.722656,-0.117188 7.453125,-0.359375 7.179688,-0.597656 7.046875,-1.066406 7.046875,-1.765625 Z m 8.984375,5.859375 c -0.375,0 -0.632812,0.07031 -0.765625,0.203125 -0.136719,0.125 -0.203125,0.351563 -0.203125,0.671875 V -8.5 c 0,0.324219 0.06641,0.554688 0.203125,0.6875 0.132813,0.136719 0.390625,0.203125 0.765625,0.203125 h 8.484375 c 4.8125,0 8.9375,-0.835937 12.375,-2.515625 3.445313,-1.6875 6.066406,-4.078125 7.859375,-7.171875 1.789062,-3.101563 2.6875,-6.789063 2.6875,-11.0625 0,-4.007813 -0.898438,-7.535156 -2.6875,-10.578125 -1.792969,-3.050781 -4.386719,-5.398438 -7.78125,-7.046875 -3.386719,-1.65625 -7.429688,-2.484375 -12.125,-2.484375 z m 0,0"
               id="path20" /></g></g></g><g
         fill="#000000"
         fill-opacity="1"
         id="g26"><g
           transform="translate(348.38015,75.345166)"
           id="g25"><g
             id="g24"><path
               d="m 15.0625,-1.765625 c 0,0.699219 -0.136719,1.167969 -0.40625,1.40625 C 14.394531,-0.117188 13.941406,0 13.296875,0 H 8.8125 C 8.175781,0 7.722656,-0.117188 7.453125,-0.359375 7.179688,-0.597656 7.046875,-1.066406 7.046875,-1.765625 v -52.5625 c 0,-0.6875 0.132813,-1.148437 0.40625,-1.390625 0.269531,-0.25 0.722656,-0.375 1.359375,-0.375 H 24.125 c 15.21875,0 22.828125,5.796875 22.828125,17.390625 0,3.84375 -0.964844,7.011719 -2.890625,9.5 -1.917969,2.480469 -4.585938,4.308594 -8,5.484375 l 13.78125,21.3125 c 0.425781,0.59375 0.640625,1.105469 0.640625,1.53125 0,0.3125 -0.152344,0.539062 -0.453125,0.671875 C 49.738281,-0.0664062 49.300781,0 48.71875,0 h -4.734375 c -0.90625,0 -1.574219,-0.128906 -2,-0.390625 C 41.554688,-0.660156 41.050781,-1.25 40.46875,-2.15625 l -14.75,-23.40625 c -0.324219,-0.425781 -0.484375,-0.800781 -0.484375,-1.125 0,-0.425781 0.398437,-0.664062 1.203125,-0.71875 8.070312,-0.851562 12.109375,-4.457031 12.109375,-10.8125 0,-3.632812 -1.273437,-6.289062 -3.8125,-7.96875 -2.542969,-1.6875 -6.214844,-2.53125 -11.015625,-2.53125 h -7.6875 c -0.375,0 -0.632812,0.07031 -0.765625,0.203125 C 15.128906,-48.378906 15.0625,-48.125 15.0625,-47.75 Z m 0,0"
               id="path23" /></g></g></g><g
         fill="#000000"
         fill-opacity="1"
         id="g29"><g
           transform="translate(399.238,75.345166)"
           id="g28"><g
             id="g27"><path
               d="M 8.890625,-2.40625 C 8.460938,-1.445312 8.035156,-0.804688 7.609375,-0.484375 7.179688,-0.160156 6.539062,0 5.6875,0 H 1.515625 c -1.0625,0 -1.59375,-0.347656 -1.59375,-1.046875 0,-0.257813 0.1328125,-0.710937 0.40625,-1.359375 L 24.4375,-53.203125 c 0.800781,-1.65625 1.390625,-2.734375 1.765625,-3.234375 0.375,-0.507812 0.828125,-0.765625 1.359375,-0.765625 0.476562,0 0.890625,0.257813 1.234375,0.765625 0.351563,0.5 0.929687,1.578125 1.734375,3.234375 L 54.890625,-2.40625 c 0.257813,0.648438 0.390625,1.101562 0.390625,1.359375 C 55.28125,-0.347656 54.722656,0 53.609375,0 h -4.5 C 48.253906,0 47.625,-0.160156 47.21875,-0.484375 46.820312,-0.804688 46.382812,-1.445312 45.90625,-2.40625 l -18.5,-39.90625 z m 0,0"
               id="path26" /></g></g></g><g
         fill="#000000"
         fill-opacity="1"
         id="g32"><g
           transform="translate(454.42074,75.345166)"
           id="g31"><g
             id="g30" /></g></g><g
         fill="#000000"
         fill-opacity="1"
         id="g35"><g
           transform="translate(476.44576,75.345166)"
           id="g34"><g
             id="g33"><path
               d="m 16.03125,-18.515625 c -0.375,0 -0.632812,0.07031 -0.765625,0.203125 -0.136719,0.136719 -0.203125,0.367188 -0.203125,0.6875 v 15.859375 c 0,0.699219 -0.136719,1.167969 -0.40625,1.40625 C 14.394531,-0.117188 13.941406,0 13.296875,0 H 8.8125 C 8.175781,0 7.722656,-0.117188 7.453125,-0.359375 7.179688,-0.597656 7.046875,-1.066406 7.046875,-1.765625 v -52.5625 c 0,-0.6875 0.132813,-1.148437 0.40625,-1.390625 0.269531,-0.25 0.722656,-0.375 1.359375,-0.375 h 15.46875 c 7.632812,0 13.332031,1.5625 17.09375,4.6875 3.769531,3.125 5.65625,7.710938 5.65625,13.75 0,4.0625 -0.898438,7.523438 -2.6875,10.375 -1.78125,2.855469 -4.4375,5.03125 -7.96875,6.53125 -3.523438,1.492188 -7.792969,2.234375 -12.8125,2.234375 z m 0,-29.953125 c -0.375,0 -0.632812,0.07031 -0.765625,0.203125 -0.136719,0.125 -0.203125,0.351563 -0.203125,0.671875 v 20.515625 c 0,0.324219 0.06641,0.5625 0.203125,0.71875 0.132813,0.15625 0.390625,0.234375 0.765625,0.234375 h 7.765625 c 4.695313,0 8.351563,-0.929688 10.96875,-2.796875 2.625,-1.875 3.9375,-4.734375 3.9375,-8.578125 0,-3.84375 -1.273437,-6.628906 -3.8125,-8.359375 -2.53125,-1.738281 -6.230469,-2.609375 -11.09375,-2.609375 z m 0,0"
               id="path32" /></g></g></g><g
         fill="#000000"
         fill-opacity="1"
         id="g38"><g
           transform="translate(526.42261,75.345166)"
           id="g37"><g
             id="g36"><path
               d="m 3.6875,-27.796875 c 0,-5.445313 1.265625,-10.398437 3.796875,-14.859375 2.539063,-4.46875 6.015625,-7.96875 10.421875,-10.5 4.40625,-2.539062 9.332031,-3.8125 14.78125,-3.8125 5.445312,0 10.359375,1.257812 14.734375,3.765625 4.382813,2.511719 7.832031,5.960937 10.34375,10.34375 2.507813,4.375 3.765625,9.289063 3.765625,14.734375 0,5.449219 -1.273438,10.390625 -3.8125,14.828125 -2.53125,4.429687 -6.015625,7.898437 -10.453125,10.40625 C 42.835938,-0.378906 37.875,0.875 32.375,0.875 26.976562,0.875 22.101562,-0.363281 17.75,-2.84375 13.394531,-5.320312 9.960938,-8.75 7.453125,-13.125 4.941406,-17.507812 3.6875,-22.398438 3.6875,-27.796875 Z m 8.328125,-0.09375 c 0,4.011719 0.894531,7.636719 2.6875,10.875 1.789063,3.230469 4.25,5.75 7.375,7.5625 3.125,1.8125 6.582031,2.71875 10.375,2.71875 3.789063,0 7.273437,-0.921875 10.453125,-2.765625 3.175781,-1.84375 5.6875,-4.390625 7.53125,-7.640625 1.84375,-3.257813 2.765625,-6.894531 2.765625,-10.90625 0,-4.113281 -0.914063,-7.785156 -2.734375,-11.015625 -1.8125,-3.226562 -4.296875,-5.75 -7.453125,-7.5625 -3.148437,-1.820312 -6.617187,-2.734375 -10.40625,-2.734375 -3.792969,0 -7.265625,0.921875 -10.421875,2.765625 -3.148438,1.84375 -5.632812,4.398438 -7.453125,7.65625 -1.8125,3.261719 -2.71875,6.945312 -2.71875,11.046875 z m 0,0"
               id="path35" /></g></g></g><g
         fill="#000000"
         fill-opacity="1"
         id="g41"><g
           transform="translate(591.61674,75.345166)"
           id="g40"><g
             id="g39"><path
               d="m 44.546875,-54.328125 c 0,-0.6875 0.128906,-1.148437 0.390625,-1.390625 0.269531,-0.25 0.726562,-0.375 1.375,-0.375 h 4.484375 c 0.644531,0 1.097656,0.125 1.359375,0.375 0.269531,0.242188 0.40625,0.703125 0.40625,1.390625 v 52.5625 c 0,1.76171875 -0.539062,2.640625 -1.609375,2.640625 -0.429687,0 -0.882813,-0.171875 -1.359375,-0.515625 -0.480469,-0.34375 -1.148438,-1 -2,-1.96875 l -32.53125,-38.375 v 38.21875 c 0,0.699219 -0.136719,1.167969 -0.40625,1.40625 C 14.394531,-0.117188 13.941406,0 13.296875,0 H 8.8125 C 8.175781,0 7.722656,-0.117188 7.453125,-0.359375 7.179688,-0.597656 7.046875,-1.066406 7.046875,-1.765625 v -52.5625 c 0,-0.90625 0.132813,-1.570313 0.40625,-2 0.269531,-0.425781 0.695313,-0.640625 1.28125,-0.640625 0.425781,0 0.878906,0.179688 1.359375,0.53125 0.476562,0.34375 1.117188,0.996094 1.921875,1.953125 l 32.53125,38.375 z m 0,0"
               id="path38" /></g></g></g><g
         fill="#000000"
         fill-opacity="1"
         id="g44"><g
           transform="translate(651.20448,75.345166)"
           id="g43"><g
             id="g42"><path
               d="m 32.53125,-6.734375 c 6.03125,0 11.398438,-1.921875 16.109375,-5.765625 0.582031,-0.476562 1.035156,-0.71875 1.359375,-0.71875 0.207031,0 0.414062,0.08594 0.625,0.25 0.21875,0.15625 0.410156,0.339844 0.578125,0.546875 l 2.328125,3.203125 c 0.257812,0.324219 0.390625,0.699219 0.390625,1.125 0,0.21875 -0.08594,0.449219 -0.25,0.6875 -0.15625,0.242188 -0.390625,0.492188 -0.703125,0.75 -2.835938,2.40625 -6.027344,4.265625 -9.578125,5.578125 -3.554687,1.300781 -7.28125,1.953125 -11.1875,1.953125 -5.230469,0 -10.023437,-1.222656 -14.375,-3.671875 -4.355469,-2.457031 -7.804687,-5.875 -10.34375,-10.25 -2.53125,-4.382813 -3.796875,-9.300781 -3.796875,-14.75 0,-5.507813 1.265625,-10.476563 3.796875,-14.90625 2.539063,-4.4375 6.015625,-7.921875 10.421875,-10.453125 4.40625,-2.539062 9.332031,-3.8125 14.78125,-3.8125 3.84375,0 7.515625,0.667969 11.015625,2 3.5,1.335938 6.613281,3.152344 9.34375,5.453125 0.53125,0.375 0.796875,0.777344 0.796875,1.203125 0,0.375 -0.164062,0.804688 -0.484375,1.28125 l -2.3125,3.125 c -0.429687,0.585938 -0.859375,0.875 -1.296875,0.875 -0.3125,0 -0.765625,-0.210938 -1.359375,-0.640625 -2.292969,-1.757813 -4.777344,-3.144531 -7.453125,-4.15625 -2.667969,-1.019531 -5.46875,-1.53125 -8.40625,-1.53125 -3.792969,0 -7.25,0.914063 -10.375,2.734375 -3.125,1.8125 -5.601562,4.351562 -7.421875,7.609375 -1.8125,3.25 -2.71875,6.933594 -2.71875,11.046875 0,3.960938 0.894531,7.570312 2.6875,10.828125 1.789063,3.25 4.25,5.796875 7.375,7.640625 3.125,1.84375 6.609375,2.765625 10.453125,2.765625 z m 0,0"
               id="path41" /></g></g></g><g
         fill="#000000"
         fill-opacity="1"
         id="g47"><g
           transform="translate(707.34832,75.345166)"
           id="g46"><g
             id="g45"><path
               d="m 39.1875,-7.609375 c 0.632812,0 1.082031,0.121094 1.34375,0.359375 0.269531,0.242188 0.40625,0.710938 0.40625,1.40625 v 4.078125 c 0,0.699219 -0.136719,1.167969 -0.40625,1.40625 C 40.269531,-0.117188 39.820312,0 39.1875,0 H 8.8125 C 8.175781,0 7.722656,-0.117188 7.453125,-0.359375 7.179688,-0.597656 7.046875,-1.066406 7.046875,-1.765625 v -52.5625 c 0,-0.6875 0.132813,-1.148437 0.40625,-1.390625 0.269531,-0.25 0.722656,-0.375 1.359375,-0.375 h 30.28125 c 0.644531,0 1.097656,0.125 1.359375,0.375 0.269531,0.242188 0.40625,0.703125 0.40625,1.390625 v 4.09375 c 0,0.6875 -0.136719,1.15625 -0.40625,1.40625 -0.261719,0.242187 -0.714844,0.359375 -1.359375,0.359375 h -23.0625 c -0.375,0 -0.632812,0.07031 -0.765625,0.203125 -0.136719,0.125 -0.203125,0.351563 -0.203125,0.671875 v 14.65625 c 0,0.375 0.06641,0.632812 0.203125,0.765625 0.132813,0.136719 0.390625,0.203125 0.765625,0.203125 H 36.375 c 0.644531,0 1.097656,0.121094 1.359375,0.359375 0.269531,0.242187 0.40625,0.710937 0.40625,1.40625 v 4 c 0,0.648437 -0.136719,1.105469 -0.40625,1.375 -0.261719,0.261719 -0.714844,0.390625 -1.359375,0.390625 H 16.03125 c -0.375,0 -0.632812,0.07031 -0.765625,0.203125 C 15.128906,-24.097656 15.0625,-23.875 15.0625,-23.5625 V -8.5 c 0,0.324219 0.06641,0.554688 0.203125,0.6875 0.132813,0.136719 0.390625,0.203125 0.765625,0.203125 z m 0,0"
               id="path44" /></g></g></g></g><path
       style="fill:#000000;stroke-width:2.04596"
       d="m 126.18037,2.2007635 c 4.94118,-52.2510195 20.76949,-115.4540235 41.52798,-165.8227035 0.5965,-1.44737 -4.67676,3.12037 -11.71839,10.15052 -14.27772,14.2545 -25.39553,20.86877 -35.07794,20.86877 -9.02455,0 -14.47822,-3.43102 -18.4303,-11.59493 -3.040707,-6.2813 -3.336897,-8.73971 -2.639517,-21.90807 0.432067,-8.15805 1.311157,-16.21385 1.953567,-17.90176 0.71373,-1.87531 -1.75249,-0.29824 -6.340837,4.05477 -7.92491,7.51844 -15.49818,12.06097 -20.09204,12.05143 -5.04501,-0.0104 -12.87498,-6.09102 -15.29175,-11.87516 -4.12039,-9.86147 0.30546,-26.56497 10.37081,-39.14025 2.53316,-3.16485 3.91834,-5.75427 3.07819,-5.75427 -4.61041,0 -31.33629,9.88665 -65.03333,24.05765 -68.6666,28.87713 -100.20984,37.62547 -136.133873,37.75597 -31.59941,0.11478 -55.3906,-6.84126 -71.5478,-20.91909 -10.43535,-9.09236 -16.5872,-26.97256 -9.72683,-28.27074 1.64051,-0.31043 2.92454,1.68755 4.23618,6.59162 3.85247,14.40398 21.33528,27.69974 44.81457,34.0817 15.70367,4.26846 55.62606,3.82748 76.491573,-0.84492 20.93329,-4.68757 47.5265,-13.67287 76.86806,-25.97213 56.5861,-23.71952 76.39176,-31.08347 83.6003,-31.08347 1.44224,0 4.84001,-1.69155 7.55056,-3.75899 12.78594,-9.75232 25.624567,-12.33703 34.475577,-6.94073 l 5.08305,3.09904 4.0231,-3.16456 c 2.99897,-2.35899 5.22055,-2.9081 8.72719,-2.15709 7.19644,1.54124 7.33526,1.93341 3.11798,8.80798 -16.20141,26.40988 -29.78007,62.62895 -29.84787,79.61483 -0.0669,16.75213 11.25097,20.91962 27.8629,10.25977 10.85965,-6.96862 35.00813,-33.043 40.31319,-43.52827 6.57447,-12.99421 15.83657,-26.85992 18.08175,-27.06908 9.98081,-0.92982 10.76984,2.21916 3.37649,13.47573 -12.61928,19.21321 -33.70175,71.77635 -46.73855,116.529291 -2.60802,8.952818 -4.50044,16.519232 -4.20539,16.81428 0.29505,0.295048 3.89385,-7.546629 7.99738,-17.425961 4.1035,-9.879312 11.40023,-25.9033 16.21495,-35.60883 4.81472,-9.70552 8.44053,-18.53917 8.05733,-19.63034 -1.39161,-3.96271 1.28312,-9.52114 5.6743,-11.79191 2.59831,-1.34364 8.54093,-8.3104 14.09445,-16.52347 13.33872,-19.72659 33.00505,-39.08675 46.40691,-45.68447 27.30452,-13.44196 50.89682,-2.68418 47.98738,21.8816 -1.00665,8.4996 -6.85358,22.26086 -12.73385,29.97031 -2.16154,2.83391 -3.53229,5.55032 -3.04615,6.03647 1.61823,1.61823 30.67646,-8.52386 46.23051,-16.13568 8.43787,-4.12931 25.7422,-13.40966 38.45408,-20.623 48.05216,-27.26717 70.99381,-37.04588 97.93478,-41.74399 22.75268,-3.96773 44.60735,-2.18312 64.23493,5.24531 16.18656,6.12611 31.64164,24.13023 28.26575,32.92769 -1.60895,4.19283 -3.60785,2.6718 -7.83008,-5.95812 -9.01252,-18.4209 -31.7056,-28.45228 -64.36507,-28.45228 -32.93891,0 -61.64082,10.24888 -119.17533,42.55518 -38.83788,21.80791 -60.45749,31.42879 -80.48737,35.81746 -6.78156,1.48589 -11.77334,3.97192 -18.94987,9.43757 -5.35868,4.08117 -12.2638,8.70416 -15.34471,10.27331 -18.41283,9.37793 -40.07446,10.2723 -58.95204,2.43402 -2.29004,-0.95086 -4.23612,2.06949 -12.48695,19.38006 -13.09697,27.478035 -25.43651,58.887424 -36.99226,94.161064 -7.19982,21.9772995 -10.22002,29.28721 -12.26775,29.69217 -2.47665,0.4898 -2.62232,-0.45848 -1.64992,-10.7413005 z M 230.31346,-139.32266 c 20.623,-9.96964 20.5586,-10.055 -7.63059,-10.11036 l -24.84818,-0.0488 -3.87306,6.49486 c -2.1302,3.57218 -3.36579,7.00214 -2.74581,7.62214 2.27362,2.27362 13.54873,3.66107 20.68399,2.54524 4.03366,-0.63079 12.3198,-3.55717 18.41365,-6.50307 z m 33.62058,-24.57555 c 18.82354,-19.07621 26.03238,-37.73052 17.94091,-46.42575 -3.30467,-3.55125 -4.48707,-3.85337 -12.35216,-3.15607 -17.52983,1.55416 -39.283,17.64455 -56.8621,42.05976 -13.57291,18.85113 -14.92265,17.33503 15.43274,17.33503 h 26.15763 z M 84.397393,-177.33964 c 9.37768,-6.60327 21.261317,-21.98592 28.699257,-37.14951 4.17602,-8.51355 7.26249,-16.01353 6.85884,-16.66664 -1.63787,-2.65016 -11.0479,-0.96238 -17.51514,3.14153 -14.992327,9.51367 -33.675147,34.87199 -33.675147,45.70751 0,2.30757 1.15161,5.4681 2.55915,7.02341 2.86756,3.16861 6.45396,2.6045 13.07304,-2.0563 z"
       id="path201" /></g><g
     transform="translate(20.120851,86.658203)"
     id="g141"><g
       clip-path="url(#dfd0f36069)"
       id="g140"><g
         fill="#000000"
         fill-opacity="1"
         id="g52"><g
           transform="translate(0.661098,42.832944)"
           id="g51"><g
             id="g50"><path
               d="m 3.75,-28.875 c 0,-0.375 0.066406,-0.625 0.203125,-0.75 0.144531,-0.125 0.390625,-0.1875 0.734375,-0.1875 h 8.34375 c 3.519531,0 6.265625,0.632812 8.234375,1.890625 1.976563,1.261719 2.96875,3.273437 2.96875,6.03125 0,1.730469 -0.386719,3.117187 -1.15625,4.15625 -0.761719,1.03125 -1.851563,1.804687 -3.265625,2.3125 1.613281,0.398437 2.894531,1.164063 3.84375,2.296875 0.957031,1.136719 1.4375,2.601562 1.4375,4.390625 0,3.042969 -1.03125,5.261719 -3.09375,6.65625 C 19.9375,-0.691406 16.988281,0 13.15625,0 H 4.6875 C 4.34375,0 4.097656,-0.0625 3.953125,-0.1875 3.816406,-0.320312 3.75,-0.570312 3.75,-0.9375 Z m 4.765625,2.984375 c -0.199219,0 -0.335937,0.04297 -0.40625,0.125 C 8.035156,-25.679688 8,-25.554688 8,-25.390625 v 7.921875 c 0,0.179688 0.035156,0.308594 0.109375,0.390625 0.070313,0.08594 0.207031,0.125 0.40625,0.125 h 4.8125 c 2.15625,0 3.773437,-0.375 4.859375,-1.125 1.082031,-0.75 1.625,-1.878906 1.625,-3.390625 0,-1.53125 -0.59375,-2.648438 -1.78125,-3.359375 -1.179688,-0.707031 -2.945312,-1.0625 -5.296875,-1.0625 z m 4.640625,21.96875 c 1.757812,0 3.1875,-0.15625 4.28125,-0.46875 1.09375,-0.3125 1.898438,-0.820313 2.421875,-1.53125 0.53125,-0.707031 0.796875,-1.628906 0.796875,-2.765625 0,-1.59375 -0.605469,-2.722656 -1.8125,-3.390625 -1.210938,-0.664063 -2.992188,-1 -5.34375,-1 H 8.515625 c -0.199219,0 -0.335937,0.03906 -0.40625,0.109375 C 8.035156,-12.894531 8,-12.757812 8,-12.5625 v 8.125 c 0,0.179688 0.035156,0.308594 0.109375,0.390625 0.070313,0.085937 0.207031,0.125 0.40625,0.125 z m 0,0"
               id="path49" /></g></g></g><g
         fill="#000000"
         fill-opacity="1"
         id="g55"><g
           transform="translate(27.326955,42.832944)"
           id="g54"><g
             id="g53"><path
               d="m 20.828125,-4.046875 c 0.34375,0 0.582031,0.070313 0.71875,0.203125 0.144531,0.125 0.21875,0.371094 0.21875,0.734375 V -0.9375 c 0,0.367188 -0.07422,0.617188 -0.21875,0.75 C 21.410156,-0.0625 21.171875,0 20.828125,0 H 4.6875 C 4.34375,0 4.097656,-0.0625 3.953125,-0.1875 3.816406,-0.320312 3.75,-0.570312 3.75,-0.9375 V -28.875 c 0,-0.375 0.066406,-0.625 0.203125,-0.75 0.144531,-0.125 0.390625,-0.1875 0.734375,-0.1875 h 16.09375 c 0.34375,0 0.582031,0.0625 0.71875,0.1875 0.144531,0.125 0.21875,0.375 0.21875,0.75 v 2.171875 c 0,0.367187 -0.07422,0.617187 -0.21875,0.75 -0.136719,0.125 -0.375,0.1875 -0.71875,0.1875 H 8.515625 c -0.199219,0 -0.335937,0.03906 -0.40625,0.109375 C 8.035156,-25.59375 8,-25.472656 8,-25.296875 V -17.5 c 0,0.199219 0.035156,0.335938 0.109375,0.40625 C 8.179688,-17.03125 8.316406,-17 8.515625,-17 H 19.34375 c 0.332031,0 0.570312,0.07031 0.71875,0.203125 0.144531,0.125 0.21875,0.371094 0.21875,0.734375 v 2.140625 c 0,0.335937 -0.07422,0.574219 -0.21875,0.71875 -0.148438,0.148437 -0.386719,0.21875 -0.71875,0.21875 H 8.515625 c -0.199219,0 -0.335937,0.03906 -0.40625,0.109375 C 8.035156,-12.8125 8,-12.691406 8,-12.515625 v 8 c 0,0.167969 0.035156,0.289063 0.109375,0.359375 0.070313,0.074219 0.207031,0.109375 0.40625,0.109375 z m 0,0"
               id="path52" /></g></g></g><g
         fill="#000000"
         fill-opacity="1"
         id="g58"><g
           transform="translate(52.033293,42.832944)"
           id="g57"><g
             id="g56"><path
               d="M 4.734375,-1.28125 C 4.503906,-0.769531 4.273438,-0.425781 4.046875,-0.25 3.816406,-0.0820312 3.476562,0 3.03125,0 H 0.8125 c -0.574219,0 -0.859375,-0.179688 -0.859375,-0.546875 0,-0.144531 0.0703125,-0.390625 0.21875,-0.734375 l 12.8125,-27 c 0.425781,-0.882812 0.738281,-1.457031 0.9375,-1.71875 0.195313,-0.269531 0.441406,-0.40625 0.734375,-0.40625 0.25,0 0.46875,0.136719 0.65625,0.40625 0.1875,0.261719 0.492188,0.835938 0.921875,1.71875 l 12.9375,27 c 0.144531,0.34375 0.21875,0.589844 0.21875,0.734375 C 29.390625,-0.179688 29.09375,0 28.5,0 h -2.390625 c -0.460937,0 -0.792969,-0.0820312 -1,-0.25 -0.210937,-0.175781 -0.445313,-0.519531 -0.703125,-1.03125 L 14.5625,-22.484375 Z m 0,0"
               id="path55" /></g></g></g><g
         fill="#000000"
         fill-opacity="1"
         id="g61"><g
           transform="translate(80.530786,42.832944)"
           id="g60"><g
             id="g59"><path
               d="m 28.109375,-12.6875 c 0,2.867188 -0.53125,5.289062 -1.59375,7.265625 -1.0625,1.96875 -2.542969,3.445313 -4.4375,4.421875 C 20.191406,-0.0195312 18.03125,0.46875 15.59375,0.46875 13.226562,0.46875 11.144531,0 9.34375,-0.9375 7.539062,-1.875 6.128906,-3.320312 5.109375,-5.28125 4.085938,-7.238281 3.578125,-9.664062 3.578125,-12.5625 V -28.875 c 0,-0.375 0.066406,-0.625 0.203125,-0.75 0.144531,-0.125 0.390625,-0.1875 0.734375,-0.1875 h 2.34375 c 0.363281,0 0.617187,0.0625 0.765625,0.1875 0.144531,0.125 0.21875,0.375 0.21875,0.75 v 16.046875 C 7.84375,-9.898438 8.519531,-7.625 9.875,-6 c 1.363281,1.617188 3.328125,2.421875 5.890625,2.421875 1.695313,0 3.148437,-0.367187 4.359375,-1.109375 1.207031,-0.738281 2.128906,-1.796875 2.765625,-3.171875 0.644531,-1.375 0.96875,-3.015625 0.96875,-4.921875 V -28.875 c 0,-0.375 0.06641,-0.625 0.203125,-0.75 0.144531,-0.125 0.375,-0.1875 0.6875,-0.1875 h 2.375 c 0.375,0 0.628906,0.0625 0.765625,0.1875 0.144531,0.125 0.21875,0.375 0.21875,0.75 z m 0,0"
               id="path58" /></g></g></g><g
         fill="#000000"
         fill-opacity="1"
         id="g64"><g
           transform="translate(112.18051,42.832944)"
           id="g63"><g
             id="g62"><path
               d="m 23.8125,-26.703125 c 0,0.367187 -0.07422,0.617187 -0.21875,0.75 -0.136719,0.125 -0.375,0.1875 -0.71875,0.1875 h -8.015625 c -0.199219,0 -0.335937,0.03906 -0.40625,0.109375 -0.0625,0.0625 -0.09375,0.183594 -0.09375,0.359375 V -0.9375 c 0,0.367188 -0.07422,0.617188 -0.21875,0.75 C 13.992188,-0.0625 13.753906,0 13.421875,0 H 11.03125 C 10.6875,0 10.441406,-0.0625 10.296875,-0.1875 10.160156,-0.320312 10.09375,-0.570312 10.09375,-0.9375 v -24.359375 c 0,-0.175781 -0.03906,-0.296875 -0.109375,-0.359375 -0.074219,-0.07031 -0.210937,-0.109375 -0.40625,-0.109375 h -8 c -0.34375,0 -0.589844,-0.0625 -0.734375,-0.1875 -0.136719,-0.132813 -0.203125,-0.382813 -0.203125,-0.75 V -28.875 c 0,-0.375 0.066406,-0.625 0.203125,-0.75 0.144531,-0.125 0.390625,-0.1875 0.734375,-0.1875 H 22.875 c 0.34375,0 0.582031,0.0625 0.71875,0.1875 0.144531,0.125 0.21875,0.375 0.21875,0.75 z m 0,0"
               id="path61" /></g></g></g><g
         fill="#000000"
         fill-opacity="1"
         id="g67"><g
           transform="translate(138.33516,42.832944)"
           id="g66"><g
             id="g65"><path
               d="m 20.703125,-28.75 c 0.28125,-0.457031 0.519531,-0.75 0.71875,-0.875 0.195313,-0.125 0.523437,-0.1875 0.984375,-0.1875 h 2.5 c 0.257812,0 0.457031,0.04297 0.59375,0.125 0.144531,0.08594 0.21875,0.199219 0.21875,0.34375 0,0.117188 -0.07031,0.3125 -0.203125,0.59375 l -10.5625,17.5 v 10.3125 c 0,0.367188 -0.07422,0.617188 -0.21875,0.75 C 14.585938,-0.0625 14.347656,0 14.015625,0 H 11.625 C 11.28125,0 11.035156,-0.0625 10.890625,-0.1875 10.753906,-0.320312 10.6875,-0.570312 10.6875,-0.9375 V -11.03125 L 0.125,-28.75 c -0.1445312,-0.28125 -0.21875,-0.476562 -0.21875,-0.59375 0,-0.175781 0.0625,-0.296875 0.1875,-0.359375 0.132812,-0.07031 0.328125,-0.109375 0.578125,-0.109375 H 3.3125 c 0.488281,0 0.832031,0.0625 1.03125,0.1875 0.195312,0.125 0.4375,0.417969 0.71875,0.875 l 7.796875,13.453125 z m 0,0"
               id="path64" /></g></g></g><g
         fill="#000000"
         fill-opacity="1"
         id="g70"><g
           transform="translate(164.02128,42.832944)"
           id="g69"><g
             id="g68" /></g></g><g
         fill="#000000"
         fill-opacity="1"
         id="g73"><g
           transform="translate(175.7355,42.832944)"
           id="g72"><g
             id="g71"><path
               d="m 20.828125,-4.046875 c 0.34375,0 0.582031,0.070313 0.71875,0.203125 0.144531,0.125 0.21875,0.371094 0.21875,0.734375 V -0.9375 c 0,0.367188 -0.07422,0.617188 -0.21875,0.75 C 21.410156,-0.0625 21.171875,0 20.828125,0 H 4.6875 C 4.34375,0 4.097656,-0.0625 3.953125,-0.1875 3.816406,-0.320312 3.75,-0.570312 3.75,-0.9375 V -28.875 c 0,-0.375 0.066406,-0.625 0.203125,-0.75 0.144531,-0.125 0.390625,-0.1875 0.734375,-0.1875 h 16.09375 c 0.34375,0 0.582031,0.0625 0.71875,0.1875 0.144531,0.125 0.21875,0.375 0.21875,0.75 v 2.171875 c 0,0.367187 -0.07422,0.617187 -0.21875,0.75 -0.136719,0.125 -0.375,0.1875 -0.71875,0.1875 H 8.515625 c -0.199219,0 -0.335937,0.03906 -0.40625,0.109375 C 8.035156,-25.59375 8,-25.472656 8,-25.296875 V -17.5 c 0,0.199219 0.035156,0.335938 0.109375,0.40625 C 8.179688,-17.03125 8.316406,-17 8.515625,-17 H 19.34375 c 0.332031,0 0.570312,0.07031 0.71875,0.203125 0.144531,0.125 0.21875,0.371094 0.21875,0.734375 v 2.140625 c 0,0.335937 -0.07422,0.574219 -0.21875,0.71875 -0.148438,0.148437 -0.386719,0.21875 -0.71875,0.21875 H 8.515625 c -0.199219,0 -0.335937,0.03906 -0.40625,0.109375 C 8.035156,-12.8125 8,-12.691406 8,-12.515625 v 8 c 0,0.167969 0.035156,0.289063 0.109375,0.359375 0.070313,0.074219 0.207031,0.109375 0.40625,0.109375 z m 0,0"
               id="path70" /></g></g></g><g
         fill="#000000"
         fill-opacity="1"
         id="g76"><g
           transform="translate(199.80291,42.832944)"
           id="g75"><g
             id="g74"><path
               d="m 25.59375,-1.015625 c 0.175781,0.199219 0.265625,0.382813 0.265625,0.546875 0,0.148438 -0.07422,0.261719 -0.21875,0.34375 C 25.492188,-0.0390625 25.3125,0 25.09375,0 H 22.109375 C 21.679688,0 21.367188,-0.0625 21.171875,-0.1875 20.972656,-0.320312 20.726562,-0.597656 20.4375,-1.015625 L 13.125,-11.796875 5.75,-0.9375 C 5.46875,-0.539062 5.234375,-0.285156 5.046875,-0.171875 4.859375,-0.0546875 4.566406,0 4.171875,0 H 1.28125 C 1.050781,0 0.863281,-0.0390625 0.71875,-0.125 0.582031,-0.207031 0.515625,-0.320312 0.515625,-0.46875 c 0,-0.164062 0.082031,-0.347656 0.25,-0.546875 l 9.71875,-14.109375 -9.375,-13.671875 c -0.148437,-0.164063 -0.21875,-0.347656 -0.21875,-0.546875 0,-0.144531 0.070313,-0.257812 0.21875,-0.34375 0.144531,-0.08203 0.328125,-0.125 0.546875,-0.125 h 2.984375 c 0.394531,0 0.691406,0.0625 0.890625,0.1875 0.195312,0.125 0.453125,0.402344 0.765625,0.828125 L 13.25,-18.484375 20.234375,-28.875 c 0.28125,-0.394531 0.523437,-0.648438 0.734375,-0.765625 0.21875,-0.113281 0.523438,-0.171875 0.921875,-0.171875 H 24.75 c 0.507812,0 0.765625,0.140625 0.765625,0.421875 0,0.148437 -0.08594,0.34375 -0.25,0.59375 l -9.421875,13.59375 z m 0,0"
               id="path73" /></g></g></g><g
         fill="#000000"
         fill-opacity="1"
         id="g79"><g
           transform="translate(226.00018,42.832944)"
           id="g78"><g
             id="g77"><path
               d="m 8.515625,-9.84375 c -0.199219,0 -0.335937,0.039062 -0.40625,0.109375 C 8.035156,-9.660156 8,-9.539062 8,-9.375 v 8.4375 c 0,0.367188 -0.074219,0.617188 -0.21875,0.75 C 7.644531,-0.0625 7.410156,0 7.078125,0 H 4.6875 C 4.34375,0 4.097656,-0.0625 3.953125,-0.1875 3.816406,-0.320312 3.75,-0.570312 3.75,-0.9375 V -28.875 c 0,-0.375 0.066406,-0.625 0.203125,-0.75 0.144531,-0.125 0.390625,-0.1875 0.734375,-0.1875 h 8.21875 c 4.0625,0 7.09375,0.835938 9.09375,2.5 2,1.65625 3,4.089844 3,7.296875 0,2.15625 -0.476562,3.996094 -1.421875,5.515625 -0.949219,1.523438 -2.359375,2.679688 -4.234375,3.46875 -1.875,0.792969 -4.152344,1.1875 -6.828125,1.1875 z m 0,-15.921875 c -0.199219,0 -0.335937,0.03906 -0.40625,0.109375 C 8.035156,-25.59375 8,-25.472656 8,-25.296875 v 10.90625 c 0,0.167969 0.035156,0.292969 0.109375,0.375 0.070313,0.08594 0.207031,0.125 0.40625,0.125 h 4.140625 c 2.5,0 4.441406,-0.492187 5.828125,-1.484375 1.394531,-0.988281 2.09375,-2.507812 2.09375,-4.5625 0,-2.039062 -0.679687,-3.519531 -2.03125,-4.4375 -1.34375,-0.925781 -3.308594,-1.390625 -5.890625,-1.390625 z m 0,0"
               id="path76" /></g></g></g><g
         fill="#000000"
         fill-opacity="1"
         id="g82"><g
           transform="translate(252.58084,42.832944)"
           id="g81"><g
             id="g80"><path
               d="m 20.828125,-4.046875 c 0.34375,0 0.582031,0.070313 0.71875,0.203125 0.144531,0.125 0.21875,0.371094 0.21875,0.734375 V -0.9375 c 0,0.367188 -0.07422,0.617188 -0.21875,0.75 C 21.410156,-0.0625 21.171875,0 20.828125,0 H 4.6875 C 4.34375,0 4.097656,-0.0625 3.953125,-0.1875 3.816406,-0.320312 3.75,-0.570312 3.75,-0.9375 V -28.875 c 0,-0.375 0.066406,-0.625 0.203125,-0.75 0.144531,-0.125 0.390625,-0.1875 0.734375,-0.1875 h 16.09375 c 0.34375,0 0.582031,0.0625 0.71875,0.1875 0.144531,0.125 0.21875,0.375 0.21875,0.75 v 2.171875 c 0,0.367187 -0.07422,0.617187 -0.21875,0.75 -0.136719,0.125 -0.375,0.1875 -0.71875,0.1875 H 8.515625 c -0.199219,0 -0.335937,0.03906 -0.40625,0.109375 C 8.035156,-25.59375 8,-25.472656 8,-25.296875 V -17.5 c 0,0.199219 0.035156,0.335938 0.109375,0.40625 C 8.179688,-17.03125 8.316406,-17 8.515625,-17 H 19.34375 c 0.332031,0 0.570312,0.07031 0.71875,0.203125 0.144531,0.125 0.21875,0.371094 0.21875,0.734375 v 2.140625 c 0,0.335937 -0.07422,0.574219 -0.21875,0.71875 -0.148438,0.148437 -0.386719,0.21875 -0.71875,0.21875 H 8.515625 c -0.199219,0 -0.335937,0.03906 -0.40625,0.109375 C 8.035156,-12.8125 8,-12.691406 8,-12.515625 v 8 c 0,0.167969 0.035156,0.289063 0.109375,0.359375 0.070313,0.074219 0.207031,0.109375 0.40625,0.109375 z m 0,0"
               id="path79" /></g></g></g><g
         fill="#000000"
         fill-opacity="1"
         id="g85"><g
           transform="translate(276.64825,42.832944)"
           id="g84"><g
             id="g83"><path
               d="m 8,-0.9375 c 0,0.367188 -0.074219,0.617188 -0.21875,0.75 C 7.644531,-0.0625 7.410156,0 7.078125,0 H 4.6875 C 4.34375,0 4.097656,-0.0625 3.953125,-0.1875 3.816406,-0.320312 3.75,-0.570312 3.75,-0.9375 V -28.875 c 0,-0.375 0.066406,-0.625 0.203125,-0.75 0.144531,-0.125 0.390625,-0.1875 0.734375,-0.1875 h 8.140625 c 8.082031,0 12.125,3.078125 12.125,9.234375 0,2.054687 -0.511719,3.742187 -1.53125,5.0625 -1.023437,1.3125 -2.4375,2.28125 -4.25,2.90625 L 26.5,-1.28125 c 0.21875,0.3125 0.328125,0.585938 0.328125,0.8125 0,0.167969 -0.07813,0.289062 -0.234375,0.359375 C 26.4375,-0.0351562 26.203125,0 25.890625,0 h -2.5 C 22.898438,0 22.539062,-0.0664062 22.3125,-0.203125 22.09375,-0.347656 21.828125,-0.664062 21.515625,-1.15625 l -7.84375,-12.4375 c -0.167969,-0.21875 -0.25,-0.414062 -0.25,-0.59375 0,-0.226562 0.210937,-0.351562 0.640625,-0.375 4.28125,-0.457031 6.421875,-2.375 6.421875,-5.75 0,-1.9375 -0.679687,-3.347656 -2.03125,-4.234375 -1.34375,-0.894531 -3.292969,-1.34375 -5.84375,-1.34375 h -4.09375 c -0.199219,0 -0.335937,0.03906 -0.40625,0.109375 C 8.035156,-25.71875 8,-25.585938 8,-25.390625 Z m 0,0"
               id="path82" /></g></g></g><g
         fill="#000000"
         fill-opacity="1"
         id="g88"><g
           transform="translate(303.78269,42.832944)"
           id="g87"><g
             id="g86"><path
               d="m 23.8125,-26.703125 c 0,0.367187 -0.07422,0.617187 -0.21875,0.75 -0.136719,0.125 -0.375,0.1875 -0.71875,0.1875 h -8.015625 c -0.199219,0 -0.335937,0.03906 -0.40625,0.109375 -0.0625,0.0625 -0.09375,0.183594 -0.09375,0.359375 V -0.9375 c 0,0.367188 -0.07422,0.617188 -0.21875,0.75 C 13.992188,-0.0625 13.753906,0 13.421875,0 H 11.03125 C 10.6875,0 10.441406,-0.0625 10.296875,-0.1875 10.160156,-0.320312 10.09375,-0.570312 10.09375,-0.9375 v -24.359375 c 0,-0.175781 -0.03906,-0.296875 -0.109375,-0.359375 -0.074219,-0.07031 -0.210937,-0.109375 -0.40625,-0.109375 h -8 c -0.34375,0 -0.589844,-0.0625 -0.734375,-0.1875 -0.136719,-0.132813 -0.203125,-0.382813 -0.203125,-0.75 V -28.875 c 0,-0.375 0.066406,-0.625 0.203125,-0.75 0.144531,-0.125 0.390625,-0.1875 0.734375,-0.1875 H 22.875 c 0.34375,0 0.582031,0.0625 0.71875,0.1875 0.144531,0.125 0.21875,0.375 0.21875,0.75 z m 0,0"
               id="path85" /></g></g></g><g
         fill="#000000"
         fill-opacity="1"
         id="g91"><g
           transform="translate(328.23348,42.832944)"
           id="g90"><g
             id="g89" /></g></g><g
         fill="#000000"
         fill-opacity="1"
         id="g94"><g
           transform="translate(339.94769,42.832944)"
           id="g93"><g
             id="g92"><path
               d="m 2.171875,-15 c 0,-0.726562 0.242187,-1.328125 0.734375,-1.796875 0.5,-0.46875 1.132812,-0.703125 1.90625,-0.703125 0.769531,0 1.410156,0.234375 1.921875,0.703125 C 7.242188,-16.328125 7.5,-15.726562 7.5,-15 c 0,0.742188 -0.257812,1.34375 -0.765625,1.8125 -0.511719,0.46875 -1.152344,0.703125 -1.921875,0.703125 -0.773438,0 -1.40625,-0.234375 -1.90625,-0.703125 C 2.414062,-13.65625 2.171875,-14.257812 2.171875,-15 Z m 0,0"
               id="path91" /></g></g></g><g
         fill="#000000"
         fill-opacity="1"
         id="g97"><g
           transform="translate(349.61724,42.832944)"
           id="g96"><g
             id="g95" /></g></g><g
         fill="#000000"
         fill-opacity="1"
         id="g100"><g
           transform="translate(361.33146,42.832944)"
           id="g99"><g
             id="g98"><path
               d="m 8,-0.9375 c 0,0.367188 -0.074219,0.617188 -0.21875,0.75 C 7.644531,-0.0625 7.410156,0 7.078125,0 H 4.6875 C 4.34375,0 4.097656,-0.0625 3.953125,-0.1875 3.816406,-0.320312 3.75,-0.570312 3.75,-0.9375 v -27.90625 c 0,-0.476562 0.0625,-0.828125 0.1875,-1.046875 0.125,-0.226563 0.34375,-0.34375 0.65625,-0.34375 0.226562,0 0.457031,0.09375 0.6875,0.28125 0.226562,0.179687 0.539062,0.496094 0.9375,0.953125 L 18.109375,-14.734375 29.8125,-29 c 0.457031,-0.488281 0.785156,-0.816406 0.984375,-0.984375 0.195313,-0.164063 0.410156,-0.25 0.640625,-0.25 0.3125,0 0.53125,0.117187 0.65625,0.34375 0.125,0.21875 0.1875,0.570313 0.1875,1.046875 V -0.9375 c 0,0.367188 -0.07422,0.617188 -0.21875,0.75 C 31.925781,-0.0625 31.6875,0 31.34375,0 h -2.375 C 28.625,0 28.378906,-0.0625 28.234375,-0.1875 28.097656,-0.320312 28.03125,-0.570312 28.03125,-0.9375 v -19.84375 l -8.515625,10.46875 c -0.375,0.492188 -0.664063,0.8125 -0.859375,0.96875 -0.199219,0.15625 -0.414062,0.234375 -0.640625,0.234375 -0.230469,0 -0.445313,-0.078125 -0.640625,-0.234375 C 17.175781,-9.5 16.894531,-9.820312 16.53125,-10.3125 L 8,-20.78125 Z m 0,0"
               id="path97" /></g></g></g><g
         fill="#000000"
         fill-opacity="1"
         id="g103"><g
           transform="translate(397.36868,42.832944)"
           id="g102"><g
             id="g101"><path
               d="M 4.734375,-1.28125 C 4.503906,-0.769531 4.273438,-0.425781 4.046875,-0.25 3.816406,-0.0820312 3.476562,0 3.03125,0 H 0.8125 c -0.574219,0 -0.859375,-0.179688 -0.859375,-0.546875 0,-0.144531 0.0703125,-0.390625 0.21875,-0.734375 l 12.8125,-27 c 0.425781,-0.882812 0.738281,-1.457031 0.9375,-1.71875 0.195313,-0.269531 0.441406,-0.40625 0.734375,-0.40625 0.25,0 0.46875,0.136719 0.65625,0.40625 0.1875,0.261719 0.492188,0.835938 0.921875,1.71875 l 12.9375,27 c 0.144531,0.34375 0.21875,0.589844 0.21875,0.734375 C 29.390625,-0.179688 29.09375,0 28.5,0 h -2.390625 c -0.460937,0 -0.792969,-0.0820312 -1,-0.25 -0.210937,-0.175781 -0.445313,-0.519531 -0.703125,-1.03125 L 14.5625,-22.484375 Z m 0,0"
               id="path100" /></g></g></g><g
         fill="#000000"
         fill-opacity="1"
         id="g106"><g
           transform="translate(428.848,42.832944)"
           id="g105"><g
             id="g104"><path
               d="m 2.390625,-6.4375 c 0.21875,-0.3125 0.429687,-0.46875 0.640625,-0.46875 0.132812,0 0.34375,0.117188 0.625,0.34375 2.59375,2.023438 5.191406,3.03125 7.796875,3.03125 1.3125,0 2.445313,-0.179688 3.40625,-0.546875 0.96875,-0.375 1.710937,-0.910156 2.234375,-1.609375 0.53125,-0.695312 0.796875,-1.5 0.796875,-2.40625 0,-0.875 -0.214844,-1.59375 -0.640625,-2.15625 -0.429688,-0.570312 -1.121094,-1.066406 -2.078125,-1.484375 -0.949219,-0.414063 -2.289063,-0.847656 -4.015625,-1.296875 C 9.113281,-13.539062 7.429688,-14.132812 6.109375,-14.8125 4.785156,-15.5 3.757812,-16.390625 3.03125,-17.484375 2.3125,-18.578125 1.953125,-19.945312 1.953125,-21.59375 c 0,-1.789062 0.4375,-3.335938 1.3125,-4.640625 0.882813,-1.3125 2.085937,-2.3125 3.609375,-3 1.519531,-0.695313 3.234375,-1.046875 5.140625,-1.046875 3.570313,0 6.804687,1.121094 9.703125,3.359375 0.144531,0.117187 0.253906,0.226563 0.328125,0.328125 0.07031,0.09375 0.109375,0.199219 0.109375,0.3125 0,0.08594 -0.03125,0.183594 -0.09375,0.296875 -0.05469,0.117187 -0.125,0.246094 -0.21875,0.390625 l -1.234375,1.828125 c -0.117187,0.167969 -0.226563,0.289063 -0.328125,0.359375 -0.09375,0.07422 -0.199219,0.109375 -0.3125,0.109375 -0.199219,0 -0.4375,-0.09766 -0.71875,-0.296875 -1.136719,-0.820312 -2.304688,-1.472656 -3.5,-1.953125 -1.1875,-0.488281 -2.449219,-0.734375 -3.78125,-0.734375 -1.085938,0 -2.042969,0.179688 -2.875,0.53125 -0.835938,0.355469 -1.484375,0.867188 -1.953125,1.53125 -0.46875,0.667969 -0.703125,1.460938 -0.703125,2.375 0,0.90625 0.234375,1.65625 0.703125,2.25 0.46875,0.59375 1.160156,1.09375 2.078125,1.5 0.925781,0.398438 2.179688,0.792969 3.765625,1.1875 2.1875,0.5625 3.953125,1.203125 5.296875,1.921875 1.351562,0.710937 2.363281,1.59375 3.03125,2.65625 0.664062,1.0625 1,2.375 1,3.9375 0,1.761719 -0.46875,3.320313 -1.40625,4.671875 -0.929688,1.34375 -2.21875,2.382812 -3.875,3.109375 C 15.382812,0.109375 13.5,0.46875 11.375,0.46875 9.4375,0.46875 7.625,0.144531 5.9375,-0.5 4.25,-1.15625 2.695312,-2.050781 1.28125,-3.1875 0.96875,-3.476562 0.8125,-3.722656 0.8125,-3.921875 c 0,-0.195313 0.097656,-0.4375 0.296875,-0.71875 z m 0,0"
               id="path103" /></g></g></g><g
         fill="#000000"
         fill-opacity="1"
         id="g109"><g
           transform="translate(453.72474,42.832944)"
           id="g108"><g
             id="g107"><path
               d="m 23.8125,-26.703125 c 0,0.367187 -0.07422,0.617187 -0.21875,0.75 -0.136719,0.125 -0.375,0.1875 -0.71875,0.1875 h -8.015625 c -0.199219,0 -0.335937,0.03906 -0.40625,0.109375 -0.0625,0.0625 -0.09375,0.183594 -0.09375,0.359375 V -0.9375 c 0,0.367188 -0.07422,0.617188 -0.21875,0.75 C 13.992188,-0.0625 13.753906,0 13.421875,0 H 11.03125 C 10.6875,0 10.441406,-0.0625 10.296875,-0.1875 10.160156,-0.320312 10.09375,-0.570312 10.09375,-0.9375 v -24.359375 c 0,-0.175781 -0.03906,-0.296875 -0.109375,-0.359375 -0.074219,-0.07031 -0.210937,-0.109375 -0.40625,-0.109375 h -8 c -0.34375,0 -0.589844,-0.0625 -0.734375,-0.1875 -0.136719,-0.132813 -0.203125,-0.382813 -0.203125,-0.75 V -28.875 c 0,-0.375 0.066406,-0.625 0.203125,-0.75 0.144531,-0.125 0.390625,-0.1875 0.734375,-0.1875 H 22.875 c 0.34375,0 0.582031,0.0625 0.71875,0.1875 0.144531,0.125 0.21875,0.375 0.21875,0.75 z m 0,0"
               id="path106" /></g></g></g><g
         fill="#000000"
         fill-opacity="1"
         id="g112"><g
           transform="translate(478.17553,42.832944)"
           id="g111"><g
             id="g110"><path
               d="m 20.828125,-4.046875 c 0.34375,0 0.582031,0.070313 0.71875,0.203125 0.144531,0.125 0.21875,0.371094 0.21875,0.734375 V -0.9375 c 0,0.367188 -0.07422,0.617188 -0.21875,0.75 C 21.410156,-0.0625 21.171875,0 20.828125,0 H 4.6875 C 4.34375,0 4.097656,-0.0625 3.953125,-0.1875 3.816406,-0.320312 3.75,-0.570312 3.75,-0.9375 V -28.875 c 0,-0.375 0.066406,-0.625 0.203125,-0.75 0.144531,-0.125 0.390625,-0.1875 0.734375,-0.1875 h 16.09375 c 0.34375,0 0.582031,0.0625 0.71875,0.1875 0.144531,0.125 0.21875,0.375 0.21875,0.75 v 2.171875 c 0,0.367187 -0.07422,0.617187 -0.21875,0.75 -0.136719,0.125 -0.375,0.1875 -0.71875,0.1875 H 8.515625 c -0.199219,0 -0.335937,0.03906 -0.40625,0.109375 C 8.035156,-25.59375 8,-25.472656 8,-25.296875 V -17.5 c 0,0.199219 0.035156,0.335938 0.109375,0.40625 C 8.179688,-17.03125 8.316406,-17 8.515625,-17 H 19.34375 c 0.332031,0 0.570312,0.07031 0.71875,0.203125 0.144531,0.125 0.21875,0.371094 0.21875,0.734375 v 2.140625 c 0,0.335937 -0.07422,0.574219 -0.21875,0.71875 -0.148438,0.148437 -0.386719,0.21875 -0.71875,0.21875 H 8.515625 c -0.199219,0 -0.335937,0.03906 -0.40625,0.109375 C 8.035156,-12.8125 8,-12.691406 8,-12.515625 v 8 c 0,0.167969 0.035156,0.289063 0.109375,0.359375 0.070313,0.074219 0.207031,0.109375 0.40625,0.109375 z m 0,0"
               id="path109" /></g></g></g><g
         fill="#000000"
         fill-opacity="1"
         id="g115"><g
           transform="translate(502.24294,42.832944)"
           id="g114"><g
             id="g113"><path
               d="m 8,-0.9375 c 0,0.367188 -0.074219,0.617188 -0.21875,0.75 C 7.644531,-0.0625 7.410156,0 7.078125,0 H 4.6875 C 4.34375,0 4.097656,-0.0625 3.953125,-0.1875 3.816406,-0.320312 3.75,-0.570312 3.75,-0.9375 V -28.875 c 0,-0.375 0.066406,-0.625 0.203125,-0.75 0.144531,-0.125 0.390625,-0.1875 0.734375,-0.1875 h 8.140625 c 8.082031,0 12.125,3.078125 12.125,9.234375 0,2.054687 -0.511719,3.742187 -1.53125,5.0625 -1.023437,1.3125 -2.4375,2.28125 -4.25,2.90625 L 26.5,-1.28125 c 0.21875,0.3125 0.328125,0.585938 0.328125,0.8125 0,0.167969 -0.07813,0.289062 -0.234375,0.359375 C 26.4375,-0.0351562 26.203125,0 25.890625,0 h -2.5 C 22.898438,0 22.539062,-0.0664062 22.3125,-0.203125 22.09375,-0.347656 21.828125,-0.664062 21.515625,-1.15625 l -7.84375,-12.4375 c -0.167969,-0.21875 -0.25,-0.414062 -0.25,-0.59375 0,-0.226562 0.210937,-0.351562 0.640625,-0.375 4.28125,-0.457031 6.421875,-2.375 6.421875,-5.75 0,-1.9375 -0.679687,-3.347656 -2.03125,-4.234375 -1.34375,-0.894531 -3.292969,-1.34375 -5.84375,-1.34375 h -4.09375 c -0.199219,0 -0.335937,0.03906 -0.40625,0.109375 C 8.035156,-25.71875 8,-25.585938 8,-25.390625 Z m 0,0"
               id="path112" /></g></g></g><g
         fill="#000000"
         fill-opacity="1"
         id="g118"><g
           transform="translate(529.29218,42.832944)"
           id="g117"><g
             id="g116" /></g></g><g
         fill="#000000"
         fill-opacity="1"
         id="g121"><g
           transform="translate(541.00639,42.832944)"
           id="g120"><g
             id="g119"><path
               d="m 23.8125,-26.703125 c 0,0.367187 -0.07422,0.617187 -0.21875,0.75 -0.136719,0.125 -0.375,0.1875 -0.71875,0.1875 h -8.015625 c -0.199219,0 -0.335937,0.03906 -0.40625,0.109375 -0.0625,0.0625 -0.09375,0.183594 -0.09375,0.359375 V -0.9375 c 0,0.367188 -0.07422,0.617188 -0.21875,0.75 C 13.992188,-0.0625 13.753906,0 13.421875,0 H 11.03125 C 10.6875,0 10.441406,-0.0625 10.296875,-0.1875 10.160156,-0.320312 10.09375,-0.570312 10.09375,-0.9375 v -24.359375 c 0,-0.175781 -0.03906,-0.296875 -0.109375,-0.359375 -0.074219,-0.07031 -0.210937,-0.109375 -0.40625,-0.109375 h -8 c -0.34375,0 -0.589844,-0.0625 -0.734375,-0.1875 -0.136719,-0.132813 -0.203125,-0.382813 -0.203125,-0.75 V -28.875 c 0,-0.375 0.066406,-0.625 0.203125,-0.75 0.144531,-0.125 0.390625,-0.1875 0.734375,-0.1875 H 22.875 c 0.34375,0 0.582031,0.0625 0.71875,0.1875 0.144531,0.125 0.21875,0.375 0.21875,0.75 z m 0,0"
               id="path118" /></g></g></g><g
         fill="#000000"
         fill-opacity="1"
         id="g124"><g
           transform="translate(565.45718,42.832944)"
           id="g123"><g
             id="g122"><path
               d="m 8,-0.9375 c 0,0.367188 -0.074219,0.617188 -0.21875,0.75 C 7.644531,-0.0625 7.410156,0 7.078125,0 H 4.6875 C 4.34375,0 4.097656,-0.0625 3.953125,-0.1875 3.816406,-0.320312 3.75,-0.570312 3.75,-0.9375 V -28.875 c 0,-0.375 0.066406,-0.625 0.203125,-0.75 0.144531,-0.125 0.390625,-0.1875 0.734375,-0.1875 h 8.140625 c 8.082031,0 12.125,3.078125 12.125,9.234375 0,2.054687 -0.511719,3.742187 -1.53125,5.0625 -1.023437,1.3125 -2.4375,2.28125 -4.25,2.90625 L 26.5,-1.28125 c 0.21875,0.3125 0.328125,0.585938 0.328125,0.8125 0,0.167969 -0.07813,0.289062 -0.234375,0.359375 C 26.4375,-0.0351562 26.203125,0 25.890625,0 h -2.5 C 22.898438,0 22.539062,-0.0664062 22.3125,-0.203125 22.09375,-0.347656 21.828125,-0.664062 21.515625,-1.15625 l -7.84375,-12.4375 c -0.167969,-0.21875 -0.25,-0.414062 -0.25,-0.59375 0,-0.226562 0.210937,-0.351562 0.640625,-0.375 4.28125,-0.457031 6.421875,-2.375 6.421875,-5.75 0,-1.9375 -0.679687,-3.347656 -2.03125,-4.234375 -1.34375,-0.894531 -3.292969,-1.34375 -5.84375,-1.34375 h -4.09375 c -0.199219,0 -0.335937,0.03906 -0.40625,0.109375 C 8.035156,-25.71875 8,-25.585938 8,-25.390625 Z m 0,0"
               id="path121" /></g></g></g><g
         fill="#000000"
         fill-opacity="1"
         id="g127"><g
           transform="translate(592.50642,42.832944)"
           id="g126"><g
             id="g125"><path
               d="M 4.734375,-1.28125 C 4.503906,-0.769531 4.273438,-0.425781 4.046875,-0.25 3.816406,-0.0820312 3.476562,0 3.03125,0 H 0.8125 c -0.574219,0 -0.859375,-0.179688 -0.859375,-0.546875 0,-0.144531 0.0703125,-0.390625 0.21875,-0.734375 l 12.8125,-27 c 0.425781,-0.882812 0.738281,-1.457031 0.9375,-1.71875 0.195313,-0.269531 0.441406,-0.40625 0.734375,-0.40625 0.25,0 0.46875,0.136719 0.65625,0.40625 0.1875,0.261719 0.492188,0.835938 0.921875,1.71875 l 12.9375,27 c 0.144531,0.34375 0.21875,0.589844 0.21875,0.734375 C 29.390625,-0.179688 29.09375,0 28.5,0 h -2.390625 c -0.460937,0 -0.792969,-0.0820312 -1,-0.25 -0.210937,-0.175781 -0.445313,-0.519531 -0.703125,-1.03125 L 14.5625,-22.484375 Z m 0,0"
               id="path124" /></g></g></g><g
         fill="#000000"
         fill-opacity="1"
         id="g130"><g
           transform="translate(621.85587,42.832944)"
           id="g129"><g
             id="g128"><path
               d="m 8,-0.9375 c 0,0.367188 -0.074219,0.617188 -0.21875,0.75 C 7.644531,-0.0625 7.410156,0 7.078125,0 H 4.6875 C 4.34375,0 4.097656,-0.0625 3.953125,-0.1875 3.816406,-0.320312 3.75,-0.570312 3.75,-0.9375 V -28.875 c 0,-0.375 0.066406,-0.625 0.203125,-0.75 0.144531,-0.125 0.390625,-0.1875 0.734375,-0.1875 h 2.390625 c 0.332031,0 0.566406,0.0625 0.703125,0.1875 C 7.925781,-29.5 8,-29.25 8,-28.875 Z m 0,0"
               id="path127" /></g></g></g><g
         fill="#000000"
         fill-opacity="1"
         id="g133"><g
           transform="translate(633.61271,42.832944)"
           id="g132"><g
             id="g131"><path
               d="m 23.6875,-28.875 c 0,-0.375 0.06641,-0.625 0.203125,-0.75 0.144531,-0.125 0.390625,-0.1875 0.734375,-0.1875 H 27 c 0.34375,0 0.582031,0.0625 0.71875,0.1875 0.144531,0.125 0.21875,0.375 0.21875,0.75 v 27.9375 c 0,0.9375 -0.28125,1.40625 -0.84375,1.40625 -0.230469,0 -0.476562,-0.09375 -0.734375,-0.28125 -0.25,-0.1796875 -0.605469,-0.523438 -1.0625,-1.046875 L 8,-21.25 v 20.3125 c 0,0.367188 -0.074219,0.617188 -0.21875,0.75 C 7.644531,-0.0625 7.410156,0 7.078125,0 H 4.6875 C 4.34375,0 4.097656,-0.0625 3.953125,-0.1875 3.816406,-0.320312 3.75,-0.570312 3.75,-0.9375 V -28.875 c 0,-0.488281 0.066406,-0.84375 0.203125,-1.0625 0.144531,-0.226562 0.375,-0.34375 0.6875,-0.34375 0.226563,0 0.46875,0.09375 0.71875,0.28125 0.257813,0.179688 0.601563,0.523438 1.03125,1.03125 L 23.6875,-8.5625 Z m 0,0"
               id="path130" /></g></g></g><g
         fill="#000000"
         fill-opacity="1"
         id="g136"><g
           transform="translate(665.30506,42.832944)"
           id="g135"><g
             id="g134"><path
               d="m 20.828125,-4.046875 c 0.34375,0 0.582031,0.070313 0.71875,0.203125 0.144531,0.125 0.21875,0.371094 0.21875,0.734375 V -0.9375 c 0,0.367188 -0.07422,0.617188 -0.21875,0.75 C 21.410156,-0.0625 21.171875,0 20.828125,0 H 4.6875 C 4.34375,0 4.097656,-0.0625 3.953125,-0.1875 3.816406,-0.320312 3.75,-0.570312 3.75,-0.9375 V -28.875 c 0,-0.375 0.066406,-0.625 0.203125,-0.75 0.144531,-0.125 0.390625,-0.1875 0.734375,-0.1875 h 16.09375 c 0.34375,0 0.582031,0.0625 0.71875,0.1875 0.144531,0.125 0.21875,0.375 0.21875,0.75 v 2.171875 c 0,0.367187 -0.07422,0.617187 -0.21875,0.75 -0.136719,0.125 -0.375,0.1875 -0.71875,0.1875 H 8.515625 c -0.199219,0 -0.335937,0.03906 -0.40625,0.109375 C 8.035156,-25.59375 8,-25.472656 8,-25.296875 V -17.5 c 0,0.199219 0.035156,0.335938 0.109375,0.40625 C 8.179688,-17.03125 8.316406,-17 8.515625,-17 H 19.34375 c 0.332031,0 0.570312,0.07031 0.71875,0.203125 0.144531,0.125 0.21875,0.371094 0.21875,0.734375 v 2.140625 c 0,0.335937 -0.07422,0.574219 -0.21875,0.71875 -0.148438,0.148437 -0.386719,0.21875 -0.71875,0.21875 H 8.515625 c -0.199219,0 -0.335937,0.03906 -0.40625,0.109375 C 8.035156,-12.8125 8,-12.691406 8,-12.515625 v 8 c 0,0.167969 0.035156,0.289063 0.109375,0.359375 0.070313,0.074219 0.207031,0.109375 0.40625,0.109375 z m 0,0"
               id="path133" /></g></g></g><g
         fill="#000000"
         fill-opacity="1"
         id="g139"><g
           transform="translate(689.37247,42.832944)"
           id="g138"><g
             id="g137"><path
               d="m 8,-0.9375 c 0,0.367188 -0.074219,0.617188 -0.21875,0.75 C 7.644531,-0.0625 7.410156,0 7.078125,0 H 4.6875 C 4.34375,0 4.097656,-0.0625 3.953125,-0.1875 3.816406,-0.320312 3.75,-0.570312 3.75,-0.9375 V -28.875 c 0,-0.375 0.066406,-0.625 0.203125,-0.75 0.144531,-0.125 0.390625,-0.1875 0.734375,-0.1875 h 8.140625 c 8.082031,0 12.125,3.078125 12.125,9.234375 0,2.054687 -0.511719,3.742187 -1.53125,5.0625 -1.023437,1.3125 -2.4375,2.28125 -4.25,2.90625 L 26.5,-1.28125 c 0.21875,0.3125 0.328125,0.585938 0.328125,0.8125 0,0.167969 -0.07813,0.289062 -0.234375,0.359375 C 26.4375,-0.0351562 26.203125,0 25.890625,0 h -2.5 C 22.898438,0 22.539062,-0.0664062 22.3125,-0.203125 22.09375,-0.347656 21.828125,-0.664062 21.515625,-1.15625 l -7.84375,-12.4375 c -0.167969,-0.21875 -0.25,-0.414062 -0.25,-0.59375 0,-0.226562 0.210937,-0.351562 0.640625,-0.375 4.28125,-0.457031 6.421875,-2.375 6.421875,-5.75 0,-1.9375 -0.679687,-3.347656 -2.03125,-4.234375 -1.34375,-0.894531 -3.292969,-1.34375 -5.84375,-1.34375 h -4.09375 c -0.199219,0 -0.335937,0.03906 -0.40625,0.109375 C 8.035156,-25.71875 8,-25.585938 8,-25.390625 Z m 0,0"
               id="path136" /></g></g></g></g></g></svg>
