<?xml version="1.0" encoding="UTF-8" standalone="no"?>
<svg
   width="828.97577"
   zoomAndPan="magnify"
   viewBox="0 0 621.73182 62.154342"
   height="82.872459"
   preserveAspectRatio="xMidYMid"
   version="1.0"
   id="svg200"
   xml:space="preserve"
   xmlns="http://www.w3.org/2000/svg"
   xmlns:svg="http://www.w3.org/2000/svg"><defs
     id="defs3"><clipPath
       id="4b80206be1"><rect
         x="0"
         width="622"
         y="0"
         height="67"
         id="rect3" /></clipPath></defs><g
     transform="translate(0.42599681,0.2996605)"
     id="g200"><g
       clip-path="url(#4b80206be1)"
       id="g199"><g
         fill="#111111"
         fill-opacity="1"
         id="g144"><g
           transform="translate(0.835936,52.337553)"
           id="g143"><g
             id="g142"><path
               d="m 21.828125,-4.515625 c 4.050781,0 7.65625,-1.289063 10.8125,-3.875 C 33.035156,-8.710938 33.34375,-8.875 33.5625,-8.875 c 0.144531,0 0.285156,0.058594 0.421875,0.171875 0.144531,0.105469 0.269531,0.226563 0.375,0.359375 l 1.5625,2.15625 c 0.175781,0.21875 0.265625,0.46875 0.265625,0.75 0,0.148438 -0.05469,0.304688 -0.15625,0.46875 -0.105469,0.15625 -0.265625,0.324219 -0.484375,0.5 -1.898437,1.617188 -4.039063,2.867188 -6.421875,3.75 -2.386719,0.875 -4.886719,1.3125 -7.5,1.3125 -3.523438,0 -6.746094,-0.820312 -9.671875,-2.46875 C 9.035156,-3.53125 6.722656,-5.828125 5.015625,-8.765625 3.316406,-11.703125 2.46875,-15 2.46875,-18.65625 c 0,-3.695312 0.847656,-7.03125 2.546875,-10 1.707031,-2.976562 4.039063,-5.316406 7,-7.015625 2.957031,-1.707031 6.265625,-2.5625 9.921875,-2.5625 2.582031,0 5.046875,0.449219 7.390625,1.34375 2.351563,0.898437 4.445313,2.117187 6.28125,3.65625 0.351563,0.25 0.53125,0.515625 0.53125,0.796875 0,0.261719 -0.109375,0.554688 -0.328125,0.875 l -1.546875,2.09375 c -0.292969,0.398438 -0.585937,0.59375 -0.875,0.59375 -0.210937,0 -0.511719,-0.144531 -0.90625,-0.4375 -1.542969,-1.175781 -3.210937,-2.101562 -5,-2.78125 -1.792969,-0.6875 -3.679687,-1.03125 -5.65625,-1.03125 -2.542969,0 -4.867187,0.609375 -6.96875,1.828125 -2.09375,1.21875 -3.75,2.921875 -4.96875,5.109375 C 8.671875,-24 8.0625,-21.523438 8.0625,-18.765625 c 0,2.648437 0.597656,5.0625 1.796875,7.25 1.207031,2.1875 2.859375,3.902344 4.953125,5.140625 2.101562,1.242188 4.441406,1.859375 7.015625,1.859375 z m 0,0"
               id="path141" /></g></g></g><g
         fill="#111111"
         fill-opacity="1"
         id="g147"><g
           transform="translate(36.061687,52.337553)"
           id="g146"><g
             id="g145"><path
               d="m 2.46875,-18.65625 c 0,-3.65625 0.847656,-6.976562 2.546875,-9.96875 1.707031,-3 4.039063,-5.347656 7,-7.046875 2.957031,-1.707031 6.265625,-2.5625 9.921875,-2.5625 3.65625,0 6.953125,0.84375 9.890625,2.53125 2.945313,1.679687 5.257813,3.992187 6.9375,6.9375 1.6875,2.9375 2.53125,6.234375 2.53125,9.890625 0,3.65625 -0.855469,6.976562 -2.5625,9.953125 C 37.035156,-5.953125 34.695312,-3.625 31.71875,-1.9375 28.75,-0.25 25.421875,0.59375 21.734375,0.59375 c -3.625,0 -6.902344,-0.832031 -9.828125,-2.5 C 8.988281,-3.570312 6.6875,-5.875 5,-8.8125 3.3125,-11.757812 2.46875,-15.039062 2.46875,-18.65625 Z m 5.59375,-0.0625 c 0,2.6875 0.597656,5.121094 1.796875,7.296875 1.207031,2.167969 2.859375,3.859375 4.953125,5.078125 2.101562,1.21875 4.425781,1.828125 6.96875,1.828125 2.539062,0 4.878906,-0.617187 7.015625,-1.859375 2.132813,-1.238281 3.816406,-2.953125 5.046875,-5.140625 1.238281,-2.1875 1.859375,-4.625 1.859375,-7.3125 0,-2.757813 -0.609375,-5.222656 -1.828125,-7.390625 -1.21875,-2.164062 -2.886719,-3.859375 -5,-5.078125 -2.117188,-1.21875 -4.445312,-1.828125 -6.984375,-1.828125 -2.542969,0 -4.875,0.621094 -7,1.859375 -2.117187,1.230469 -3.78125,2.9375 -5,5.125 -1.21875,2.1875 -1.828125,4.664063 -1.828125,7.421875 z m 0,0"
               id="path144" /></g></g></g><g
         fill="#111111"
         fill-opacity="1"
         id="g150"><g
           transform="translate(77.364647,52.337553)"
           id="g149"><g
             id="g148"><path
               d="m 10.109375,-1.1875 c 0,0.46875 -0.08984,0.789062 -0.265625,0.953125 C 9.664062,-0.078125 9.359375,0 8.921875,0 h -3 C 5.484375,0 5.175781,-0.078125 5,-0.234375 4.820312,-0.398438 4.734375,-0.71875 4.734375,-1.1875 v -35.21875 c 0,-0.613281 0.078125,-1.0625 0.234375,-1.34375 0.164062,-0.289062 0.445312,-0.4375 0.84375,-0.4375 0.28125,0 0.5625,0.121094 0.84375,0.359375 0.289062,0.230469 0.691406,0.632813 1.203125,1.203125 l 15,18.015625 14.78125,-18.015625 c 0.570313,-0.613281 0.984375,-1.023438 1.234375,-1.234375 0.257812,-0.21875 0.53125,-0.328125 0.8125,-0.328125 0.394531,0 0.671875,0.148438 0.828125,0.4375 0.164063,0.28125 0.25,0.730469 0.25,1.34375 V -1.1875 c 0,0.46875 -0.08984,0.789062 -0.265625,0.953125 C 40.320312,-0.078125 40.015625,0 39.578125,0 h -3 C 36.140625,0 35.832031,-0.078125 35.65625,-0.234375 35.476562,-0.398438 35.390625,-0.71875 35.390625,-1.1875 V -26.25 L 24.625,-13.015625 c -0.460938,0.617187 -0.8125,1.023437 -1.0625,1.21875 -0.25,0.1875 -0.523438,0.28125 -0.8125,0.28125 -0.292969,0 -0.5625,-0.09375 -0.8125,-0.28125 -0.25,-0.195313 -0.609375,-0.601563 -1.078125,-1.21875 L 10.109375,-26.25 Z m 0,0"
               id="path147" /></g></g></g><g
         fill="#111111"
         fill-opacity="1"
         id="g153"><g
           transform="translate(120.38859,52.337553)"
           id="g152"><g
             id="g151"><path
               d="m 10.75,-12.421875 c -0.25,0 -0.421875,0.04687 -0.515625,0.140625 -0.08594,0.08594 -0.125,0.234375 -0.125,0.453125 V -1.1875 c 0,0.46875 -0.08984,0.789062 -0.265625,0.953125 C 9.664062,-0.078125 9.359375,0 8.921875,0 h -3 C 5.484375,0 5.175781,-0.078125 5,-0.234375 4.820312,-0.398438 4.734375,-0.71875 4.734375,-1.1875 v -35.28125 c 0,-0.457031 0.085937,-0.765625 0.265625,-0.921875 0.175781,-0.164063 0.484375,-0.25 0.921875,-0.25 h 10.375 c 5.125,0 8.945313,1.046875 11.46875,3.140625 2.53125,2.09375 3.796875,5.167969 3.796875,9.21875 0,2.730469 -0.601562,5.054688 -1.796875,6.96875 -1.199219,1.917969 -2.984375,3.382812 -5.359375,4.390625 -2.367188,1 -5.230469,1.5 -8.59375,1.5 z m 0,-20.109375 c -0.25,0 -0.421875,0.04687 -0.515625,0.140625 -0.08594,0.08594 -0.125,0.230469 -0.125,0.4375 v 13.78125 c 0,0.210937 0.03906,0.371094 0.125,0.484375 0.09375,0.105469 0.265625,0.15625 0.515625,0.15625 h 5.21875 c 3.15625,0 5.609375,-0.625 7.359375,-1.875 1.757813,-1.257812 2.640625,-3.179688 2.640625,-5.765625 0,-2.582031 -0.855469,-4.453125 -2.5625,-5.609375 -1.699219,-1.164062 -4.179688,-1.75 -7.4375,-1.75 z m 0,0"
               id="path150" /></g></g></g><g
         fill="#111111"
         fill-opacity="1"
         id="g156"><g
           transform="translate(151.47324,52.337553)"
           id="g155"><g
             id="g154"><path
               d="m 10.109375,-1.1875 c 0,0.46875 -0.08984,0.789062 -0.265625,0.953125 C 9.664062,-0.078125 9.359375,0 8.921875,0 h -3 C 5.484375,0 5.175781,-0.078125 5,-0.234375 4.820312,-0.398438 4.734375,-0.71875 4.734375,-1.1875 v -35.28125 c 0,-0.457031 0.085937,-0.765625 0.265625,-0.921875 0.175781,-0.164063 0.484375,-0.25 0.921875,-0.25 H 16.1875 c 10.21875,0 15.328125,3.890625 15.328125,11.671875 0,2.574219 -0.648437,4.695312 -1.9375,6.359375 -1.292969,1.667969 -3.085937,2.898437 -5.375,3.6875 l 9.25,14.3125 C 33.734375,-1.210938 33.875,-0.875 33.875,-0.59375 c 0,0.21875 -0.101562,0.375 -0.296875,0.46875 C 33.390625,-0.0390625 33.097656,0 32.703125,0 H 29.53125 c -0.617188,0 -1.070312,-0.0859375 -1.359375,-0.265625 -0.28125,-0.175781 -0.621094,-0.570313 -1.015625,-1.1875 L 17.265625,-17.15625 c -0.21875,-0.289062 -0.328125,-0.539062 -0.328125,-0.75 0,-0.289062 0.269531,-0.453125 0.8125,-0.484375 5.414062,-0.570313 8.125,-2.992187 8.125,-7.265625 0,-2.4375 -0.855469,-4.21875 -2.5625,-5.34375 -1.699219,-1.132812 -4.164062,-1.703125 -7.390625,-1.703125 H 10.75 c -0.25,0 -0.421875,0.04687 -0.515625,0.140625 -0.08594,0.08594 -0.125,0.257812 -0.125,0.515625 z m 0,0"
               id="path153" /></g></g></g><g
         fill="#111111"
         fill-opacity="1"
         id="g159"><g
           transform="translate(183.14947,52.337553)"
           id="g158"><g
             id="g157"><path
               d="m 2.46875,-18.65625 c 0,-3.65625 0.847656,-6.976562 2.546875,-9.96875 1.707031,-3 4.039063,-5.347656 7,-7.046875 2.957031,-1.707031 6.265625,-2.5625 9.921875,-2.5625 3.65625,0 6.953125,0.84375 9.890625,2.53125 2.945313,1.679687 5.257813,3.992187 6.9375,6.9375 1.6875,2.9375 2.53125,6.234375 2.53125,9.890625 0,3.65625 -0.855469,6.976562 -2.5625,9.953125 C 37.035156,-5.953125 34.695312,-3.625 31.71875,-1.9375 28.75,-0.25 25.421875,0.59375 21.734375,0.59375 c -3.625,0 -6.902344,-0.832031 -9.828125,-2.5 C 8.988281,-3.570312 6.6875,-5.875 5,-8.8125 3.3125,-11.757812 2.46875,-15.039062 2.46875,-18.65625 Z m 5.59375,-0.0625 c 0,2.6875 0.597656,5.121094 1.796875,7.296875 1.207031,2.167969 2.859375,3.859375 4.953125,5.078125 2.101562,1.21875 4.425781,1.828125 6.96875,1.828125 2.539062,0 4.878906,-0.617187 7.015625,-1.859375 2.132813,-1.238281 3.816406,-2.953125 5.046875,-5.140625 1.238281,-2.1875 1.859375,-4.625 1.859375,-7.3125 0,-2.757813 -0.609375,-5.222656 -1.828125,-7.390625 -1.21875,-2.164062 -2.886719,-3.859375 -5,-5.078125 -2.117188,-1.21875 -4.445312,-1.828125 -6.984375,-1.828125 -2.542969,0 -4.875,0.621094 -7,1.859375 -2.117187,1.230469 -3.78125,2.9375 -5,5.125 -1.21875,2.1875 -1.828125,4.664063 -1.828125,7.421875 z m 0,0"
               id="path156" /></g></g></g><g
         fill="#111111"
         fill-opacity="1"
         id="g162"><g
           transform="translate(224.45243,52.337553)"
           id="g161"><g
             id="g160"><path
               d="m 4.734375,-36.46875 c 0,-0.457031 0.085937,-0.765625 0.265625,-0.921875 0.175781,-0.164063 0.484375,-0.25 0.921875,-0.25 h 10.53125 c 4.445313,0 7.914063,0.796875 10.40625,2.390625 2.488281,1.59375 3.734375,4.132812 3.734375,7.609375 0,2.1875 -0.484375,3.9375 -1.453125,5.25 -0.960937,1.304687 -2.335937,2.277344 -4.125,2.921875 2.039063,0.5 3.660156,1.46875 4.859375,2.90625 1.195312,1.4375 1.796875,3.28125 1.796875,5.53125 0,3.84375 -1.304687,6.648438 -3.90625,8.40625 C 25.171875,-0.875 21.457031,0 16.625,0 H 5.921875 C 5.484375,0 5.175781,-0.078125 5,-0.234375 4.820312,-0.398438 4.734375,-0.71875 4.734375,-1.1875 Z M 10.75,-32.703125 c -0.25,0 -0.421875,0.05859 -0.515625,0.171875 -0.08594,0.105469 -0.125,0.265625 -0.125,0.484375 v 10 c 0,0.210937 0.03906,0.371094 0.125,0.484375 0.09375,0.105469 0.265625,0.15625 0.515625,0.15625 h 6.078125 c 2.726563,0 4.773437,-0.472656 6.140625,-1.421875 1.363281,-0.945313 2.046875,-2.375 2.046875,-4.28125 0,-1.9375 -0.746094,-3.351563 -2.234375,-4.25 -1.492188,-0.894531 -3.726562,-1.34375 -6.703125,-1.34375 z m 5.875,27.75 c 2.21875,0 4.015625,-0.191406 5.390625,-0.578125 1.382813,-0.394531 2.40625,-1.039062 3.0625,-1.9375 0.664063,-0.894531 1,-2.0625 1,-3.5 0,-2.007812 -0.761719,-3.4375 -2.28125,-4.28125 -1.523437,-0.84375 -3.773437,-1.265625 -6.75,-1.265625 H 10.75 c -0.25,0 -0.421875,0.04687 -0.515625,0.140625 -0.08594,0.09375 -0.125,0.265625 -0.125,0.515625 V -5.59375 c 0,0.21875 0.03906,0.382812 0.125,0.484375 0.09375,0.105469 0.265625,0.15625 0.515625,0.15625 z m 0,0"
               id="path159" /></g></g></g><g
         fill="#111111"
         fill-opacity="1"
         id="g165"><g
           transform="translate(255.64464,52.337553)"
           id="g164"><g
             id="g163"><path
               d="M 5.96875,-1.609375 C 5.6875,-0.960938 5.398438,-0.53125 5.109375,-0.3125 4.816406,-0.101562 4.382812,0 3.8125,0 H 1.015625 c -0.710937,0 -1.0625,-0.234375 -1.0625,-0.703125 0,-0.175781 0.0859375,-0.476563 0.265625,-0.90625 l 16.1875,-34.09375 c 0.53125,-1.113281 0.921875,-1.84375 1.171875,-2.1875 0.257813,-0.34375 0.566406,-0.515625 0.921875,-0.515625 0.320312,0 0.597656,0.171875 0.828125,0.515625 0.238281,0.34375 0.625,1.074219 1.15625,2.1875 l 16.359375,34.09375 c 0.175781,0.429687 0.265625,0.730469 0.265625,0.90625 0,0.46875 -0.375,0.703125 -1.125,0.703125 H 32.96875 C 32.394531,0 31.972656,-0.101562 31.703125,-0.3125 31.429688,-0.53125 31.132812,-0.960938 30.8125,-1.609375 l -12.421875,-26.78125 z m 0,0"
               id="path162" /></g></g></g><g
         fill="#111111"
         fill-opacity="1"
         id="g168"><g
           transform="translate(290.22502,52.337553)"
           id="g167"><g
             id="g166"><path
               d="m 29.90625,-36.46875 c 0,-0.457031 0.08594,-0.765625 0.265625,-0.921875 0.175781,-0.164063 0.476563,-0.25 0.90625,-0.25 h 3.015625 c 0.4375,0 0.742188,0.08594 0.921875,0.25 0.175781,0.15625 0.265625,0.464844 0.265625,0.921875 V -1.1875 c 0,1.1875 -0.359375,1.78125 -1.078125,1.78125 -0.28125,0 -0.585937,-0.121094 -0.90625,-0.359375 -0.324219,-0.23046875 -0.773437,-0.664063 -1.34375,-1.3125 L 10.109375,-26.84375 V -1.1875 c 0,0.46875 -0.08984,0.789062 -0.265625,0.953125 C 9.664062,-0.078125 9.359375,0 8.921875,0 h -3 C 5.484375,0 5.175781,-0.078125 5,-0.234375 4.820312,-0.398438 4.734375,-0.71875 4.734375,-1.1875 v -35.28125 c 0,-0.601562 0.085937,-1.046875 0.265625,-1.328125 0.175781,-0.289063 0.460938,-0.4375 0.859375,-0.4375 0.289063,0 0.597656,0.117187 0.921875,0.34375 0.320312,0.230469 0.75,0.667969 1.28125,1.3125 L 29.90625,-10.8125 Z m 0,0"
               id="path165" /></g></g></g><g
         fill="#111111"
         fill-opacity="1"
         id="g171"><g
           transform="translate(327.76334,52.337553)"
           id="g170"><g
             id="g169"><path
               d="m 30.0625,-33.71875 c 0,0.46875 -0.08984,0.789062 -0.265625,0.953125 -0.179687,0.15625 -0.484375,0.234375 -0.921875,0.234375 H 18.765625 c -0.25,0 -0.421875,0.04687 -0.515625,0.140625 -0.08594,0.08594 -0.125,0.230469 -0.125,0.4375 V -1.1875 c 0,0.46875 -0.08984,0.789062 -0.265625,0.953125 C 17.679688,-0.078125 17.375,0 16.9375,0 H 13.921875 C 13.492188,0 13.191406,-0.078125 13.015625,-0.234375 12.835938,-0.398438 12.75,-0.71875 12.75,-1.1875 v -30.765625 c 0,-0.207031 -0.04687,-0.351563 -0.140625,-0.4375 -0.08594,-0.09375 -0.257813,-0.140625 -0.515625,-0.140625 H 1.984375 c -0.429687,0 -0.730469,-0.07813 -0.90625,-0.234375 C 0.898438,-32.929688 0.8125,-33.25 0.8125,-33.71875 v -2.75 c 0,-0.457031 0.085938,-0.765625 0.265625,-0.921875 0.175781,-0.164063 0.476563,-0.25 0.90625,-0.25 H 28.875 c 0.4375,0 0.742188,0.08594 0.921875,0.25 0.175781,0.15625 0.265625,0.464844 0.265625,0.921875 z m 0,0"
               id="path168" /></g></g></g><g
         fill="#111111"
         fill-opacity="1"
         id="g174"><g
           transform="translate(356.15894,52.337553)"
           id="g173"><g
             id="g172"><path
               d="m 26.296875,-5.109375 c 0.425781,0 0.726563,0.085937 0.90625,0.25 0.1875,0.15625 0.28125,0.46875 0.28125,0.9375 V -1.1875 c 0,0.46875 -0.09375,0.789062 -0.28125,0.953125 C 27.023438,-0.078125 26.722656,0 26.296875,0 h -20.375 C 5.484375,0 5.175781,-0.078125 5,-0.234375 4.820312,-0.398438 4.734375,-0.71875 4.734375,-1.1875 v -35.28125 c 0,-0.457031 0.085937,-0.765625 0.265625,-0.921875 0.175781,-0.164063 0.484375,-0.25 0.921875,-0.25 H 26.25 c 0.425781,0 0.726562,0.08594 0.90625,0.25 0.175781,0.15625 0.265625,0.464844 0.265625,0.921875 v 2.75 c 0,0.46875 -0.08984,0.789062 -0.265625,0.953125 -0.179688,0.15625 -0.480469,0.234375 -0.90625,0.234375 h -15.5 c -0.25,0 -0.421875,0.04687 -0.515625,0.140625 -0.08594,0.08594 -0.125,0.230469 -0.125,0.4375 v 9.84375 c 0,0.25 0.03906,0.421875 0.125,0.515625 C 10.328125,-21.5 10.5,-21.453125 10.75,-21.453125 h 13.671875 c 0.425781,0 0.726563,0.08594 0.90625,0.25 0.175781,0.15625 0.265625,0.464844 0.265625,0.921875 v 2.6875 c 0,0.4375 -0.08984,0.746094 -0.265625,0.921875 -0.179687,0.179687 -0.480469,0.265625 -0.90625,0.265625 H 10.75 c -0.25,0 -0.421875,0.04687 -0.515625,0.140625 -0.08594,0.08594 -0.125,0.234375 -0.125,0.453125 v 10.109375 c 0,0.21875 0.03906,0.375 0.125,0.46875 0.09375,0.085937 0.265625,0.125 0.515625,0.125 z m 0,0"
               id="path171" /></g></g></g><g
         fill="#111111"
         fill-opacity="1"
         id="g177"><g
           transform="translate(384.07053,52.337553)"
           id="g176"><g
             id="g175" /></g></g><g
         fill="#111111"
         fill-opacity="1"
         id="g180"><g
           transform="translate(396.38574,52.337553)"
           id="g179"><g
             id="g178"><path
               d="m 4.734375,-36.46875 c 0,-0.457031 0.085937,-0.765625 0.265625,-0.921875 0.175781,-0.164063 0.484375,-0.25 0.921875,-0.25 h 11.1875 c 4.15625,0 7.765625,0.761719 10.828125,2.28125 3.0625,1.523437 5.410156,3.664063 7.046875,6.421875 1.632813,2.761719 2.453125,5.992188 2.453125,9.6875 0,3.867188 -0.855469,7.25 -2.5625,10.15625 -1.699219,2.90625 -4.136719,5.152344 -7.3125,6.734375 C 24.382812,-0.785156 20.644531,0 16.34375,0 H 5.921875 C 5.484375,0 5.175781,-0.078125 5,-0.234375 4.820312,-0.398438 4.734375,-0.71875 4.734375,-1.1875 Z m 6.015625,3.9375 c -0.25,0 -0.421875,0.04687 -0.515625,0.140625 -0.08594,0.08594 -0.125,0.230469 -0.125,0.4375 v 26.25 c 0,0.21875 0.03906,0.375 0.125,0.46875 0.09375,0.085937 0.265625,0.125 0.515625,0.125 h 5.703125 c 3.226563,0 6,-0.5625 8.3125,-1.6875 2.3125,-1.132813 4.066406,-2.738281 5.265625,-4.8125 1.207031,-2.082031 1.8125,-4.554687 1.8125,-7.421875 0,-2.695312 -0.605469,-5.066406 -1.8125,-7.109375 -1.199219,-2.039063 -2.9375,-3.613281 -5.21875,-4.71875 -2.273438,-1.113281 -4.984375,-1.671875 -8.140625,-1.671875 z m 0,0"
               id="path177" /></g></g></g><g
         fill="#111111"
         fill-opacity="1"
         id="g183"><g
           transform="translate(433.81649,52.337553)"
           id="g182"><g
             id="g181"><path
               d="m 26.296875,-5.109375 c 0.425781,0 0.726563,0.085937 0.90625,0.25 0.1875,0.15625 0.28125,0.46875 0.28125,0.9375 V -1.1875 c 0,0.46875 -0.09375,0.789062 -0.28125,0.953125 C 27.023438,-0.078125 26.722656,0 26.296875,0 h -20.375 C 5.484375,0 5.175781,-0.078125 5,-0.234375 4.820312,-0.398438 4.734375,-0.71875 4.734375,-1.1875 v -35.28125 c 0,-0.457031 0.085937,-0.765625 0.265625,-0.921875 0.175781,-0.164063 0.484375,-0.25 0.921875,-0.25 H 26.25 c 0.425781,0 0.726562,0.08594 0.90625,0.25 0.175781,0.15625 0.265625,0.464844 0.265625,0.921875 v 2.75 c 0,0.46875 -0.08984,0.789062 -0.265625,0.953125 -0.179688,0.15625 -0.480469,0.234375 -0.90625,0.234375 h -15.5 c -0.25,0 -0.421875,0.04687 -0.515625,0.140625 -0.08594,0.08594 -0.125,0.230469 -0.125,0.4375 v 9.84375 c 0,0.25 0.03906,0.421875 0.125,0.515625 C 10.328125,-21.5 10.5,-21.453125 10.75,-21.453125 h 13.671875 c 0.425781,0 0.726563,0.08594 0.90625,0.25 0.175781,0.15625 0.265625,0.464844 0.265625,0.921875 v 2.6875 c 0,0.4375 -0.08984,0.746094 -0.265625,0.921875 -0.179687,0.179687 -0.480469,0.265625 -0.90625,0.265625 H 10.75 c -0.25,0 -0.421875,0.04687 -0.515625,0.140625 -0.08594,0.08594 -0.125,0.234375 -0.125,0.453125 v 10.109375 c 0,0.21875 0.03906,0.375 0.125,0.46875 0.09375,0.085937 0.265625,0.125 0.515625,0.125 z m 0,0"
               id="path180" /></g></g></g><g
         fill="#111111"
         fill-opacity="1"
         id="g186"><g
           transform="translate(461.72808,52.337553)"
           id="g185"><g
             id="g184" /></g></g><g
         fill="#111111"
         fill-opacity="1"
         id="g189"><g
           transform="translate(474.04329,52.337553)"
           id="g188"><g
             id="g187"><path
               d="m 10.75,-12.421875 c -0.25,0 -0.421875,0.04687 -0.515625,0.140625 -0.08594,0.08594 -0.125,0.234375 -0.125,0.453125 V -1.1875 c 0,0.46875 -0.08984,0.789062 -0.265625,0.953125 C 9.664062,-0.078125 9.359375,0 8.921875,0 h -3 C 5.484375,0 5.175781,-0.078125 5,-0.234375 4.820312,-0.398438 4.734375,-0.71875 4.734375,-1.1875 v -35.28125 c 0,-0.457031 0.085937,-0.765625 0.265625,-0.921875 0.175781,-0.164063 0.484375,-0.25 0.921875,-0.25 h 10.375 c 5.125,0 8.945313,1.046875 11.46875,3.140625 2.53125,2.09375 3.796875,5.167969 3.796875,9.21875 0,2.730469 -0.601562,5.054688 -1.796875,6.96875 -1.199219,1.917969 -2.984375,3.382812 -5.359375,4.390625 -2.367188,1 -5.230469,1.5 -8.59375,1.5 z m 0,-20.109375 c -0.25,0 -0.421875,0.04687 -0.515625,0.140625 -0.08594,0.08594 -0.125,0.230469 -0.125,0.4375 v 13.78125 c 0,0.210937 0.03906,0.371094 0.125,0.484375 0.09375,0.105469 0.265625,0.15625 0.515625,0.15625 h 5.21875 c 3.15625,0 5.609375,-0.625 7.359375,-1.875 1.757813,-1.257812 2.640625,-3.179688 2.640625,-5.765625 0,-2.582031 -0.855469,-4.453125 -2.5625,-5.609375 -1.699219,-1.164062 -4.179688,-1.75 -7.4375,-1.75 z m 0,0"
               id="path186" /></g></g></g><g
         fill="#111111"
         fill-opacity="1"
         id="g192"><g
           transform="translate(505.12794,52.337553)"
           id="g191"><g
             id="g190"><path
               d="M 5.96875,-1.609375 C 5.6875,-0.960938 5.398438,-0.53125 5.109375,-0.3125 4.816406,-0.101562 4.382812,0 3.8125,0 H 1.015625 c -0.710937,0 -1.0625,-0.234375 -1.0625,-0.703125 0,-0.175781 0.0859375,-0.476563 0.265625,-0.90625 l 16.1875,-34.09375 c 0.53125,-1.113281 0.921875,-1.84375 1.171875,-2.1875 0.257813,-0.34375 0.566406,-0.515625 0.921875,-0.515625 0.320312,0 0.597656,0.171875 0.828125,0.515625 0.238281,0.34375 0.625,1.074219 1.15625,2.1875 l 16.359375,34.09375 c 0.175781,0.429687 0.265625,0.730469 0.265625,0.90625 0,0.46875 -0.375,0.703125 -1.125,0.703125 H 32.96875 C 32.394531,0 31.972656,-0.101562 31.703125,-0.3125 31.429688,-0.53125 31.132812,-0.960938 30.8125,-1.609375 l -12.421875,-26.78125 z m 0,0"
               id="path189" /></g></g></g><g
         fill="#111111"
         fill-opacity="1"
         id="g195"><g
           transform="translate(539.70834,52.337553)"
           id="g194"><g
             id="g193"><path
               d="m 36.515625,-4.296875 c 0,0.429687 -0.0625,0.75 -0.1875,0.96875 -0.125,0.210937 -0.386719,0.402344 -0.78125,0.578125 -4.199219,2.230469 -8.859375,3.34375 -13.984375,3.34375 -3.480469,0 -6.671875,-0.796875 -9.578125,-2.390625 -2.898437,-1.59375 -5.210937,-3.84375 -6.9375,-6.75 -1.71875,-2.90625 -2.578125,-6.238281 -2.578125,-10 0,-3.875 0.878906,-7.304687 2.640625,-10.296875 1.757813,-3 4.144531,-5.3125 7.15625,-6.9375 3.007813,-1.632812 6.34375,-2.453125 10,-2.453125 2.539063,0 4.976563,0.40625 7.3125,1.21875 2.332031,0.804687 4.359375,1.828125 6.078125,3.078125 0.46875,0.324219 0.703125,0.648438 0.703125,0.96875 0,0.148438 -0.125,0.417969 -0.375,0.8125 l -1.515625,2.140625 c -0.25,0.367187 -0.539062,0.546875 -0.859375,0.546875 -0.25,0 -0.539063,-0.109375 -0.859375,-0.328125 -3.4375,-2.21875 -6.96875,-3.328125 -10.59375,-3.328125 -2.71875,0 -5.15625,0.609375 -7.3125,1.828125 C 12.6875,-30.078125 11.015625,-28.375 9.828125,-26.1875 8.648438,-24 8.0625,-21.523438 8.0625,-18.765625 c 0,2.792969 0.617188,5.28125 1.859375,7.46875 1.238281,2.1875 2.90625,3.875 5,5.0625 2.101563,1.179687 4.425781,1.765625 6.96875,1.765625 3.363281,0 6.195313,-0.519531 8.5,-1.5625 0.320313,-0.132812 0.523437,-0.265625 0.609375,-0.390625 0.09375,-0.125 0.140625,-0.332031 0.140625,-0.625 V -16.625 c 0,-0.457031 0.08594,-0.765625 0.265625,-0.921875 0.175781,-0.164063 0.484375,-0.25 0.921875,-0.25 h 3 c 0.4375,0 0.742187,0.08594 0.921875,0.25 0.175781,0.15625 0.265625,0.464844 0.265625,0.921875 z m 0,0"
               id="path192" /></g></g></g><g
         fill="#111111"
         fill-opacity="1"
         id="g198"><g
           transform="translate(577.35423,52.337553)"
           id="g197"><g
             id="g196"><path
               d="m 2.46875,-18.65625 c 0,-3.65625 0.847656,-6.976562 2.546875,-9.96875 1.707031,-3 4.039063,-5.347656 7,-7.046875 2.957031,-1.707031 6.265625,-2.5625 9.921875,-2.5625 3.65625,0 6.953125,0.84375 9.890625,2.53125 2.945313,1.679687 5.257813,3.992187 6.9375,6.9375 1.6875,2.9375 2.53125,6.234375 2.53125,9.890625 0,3.65625 -0.855469,6.976562 -2.5625,9.953125 C 37.035156,-5.953125 34.695312,-3.625 31.71875,-1.9375 28.75,-0.25 25.421875,0.59375 21.734375,0.59375 c -3.625,0 -6.902344,-0.832031 -9.828125,-2.5 C 8.988281,-3.570312 6.6875,-5.875 5,-8.8125 3.3125,-11.757812 2.46875,-15.039062 2.46875,-18.65625 Z m 5.59375,-0.0625 c 0,2.6875 0.597656,5.121094 1.796875,7.296875 1.207031,2.167969 2.859375,3.859375 4.953125,5.078125 2.101562,1.21875 4.425781,1.828125 6.96875,1.828125 2.539062,0 4.878906,-0.617187 7.015625,-1.859375 2.132813,-1.238281 3.816406,-2.953125 5.046875,-5.140625 1.238281,-2.1875 1.859375,-4.625 1.859375,-7.3125 0,-2.757813 -0.609375,-5.222656 -1.828125,-7.390625 -1.21875,-2.164062 -2.886719,-3.859375 -5,-5.078125 -2.117188,-1.21875 -4.445312,-1.828125 -6.984375,-1.828125 -2.542969,0 -4.875,0.621094 -7,1.859375 -2.117187,1.230469 -3.78125,2.9375 -5,5.125 -1.21875,2.1875 -1.828125,4.664063 -1.828125,7.421875 z m 0,0"
               id="path195" /></g></g></g></g></g></svg>
